<svg width="1440" height="43" viewBox="0 0 1440 43" fill="none" xmlns="http://www.w3.org/2000/svg">
<rect width="1440" height="43" fill="#041122"/>
<path d="M366.096 26.112C365.851 26.112 365.659 26.0427 365.52 25.904C365.381 25.7653 365.312 25.568 365.312 25.312V15.44C365.312 15.1733 365.376 14.9707 365.504 14.832C365.643 14.6827 365.824 14.608 366.048 14.608C366.24 14.608 366.384 14.6453 366.48 14.72C366.587 14.784 366.709 14.9067 366.848 15.088L373.44 23.776H373.04V15.392C373.04 15.1467 373.104 14.9547 373.232 14.816C373.371 14.6773 373.563 14.608 373.808 14.608C374.064 14.608 374.256 14.6773 374.384 14.816C374.512 14.9547 374.576 15.1467 374.576 15.392V25.328C374.576 25.5733 374.512 25.7653 374.384 25.904C374.267 26.0427 374.107 26.112 373.904 26.112C373.712 26.112 373.552 26.0747 373.424 26C373.307 25.9253 373.179 25.7973 373.04 25.616L366.48 16.944H366.848V25.312C366.848 25.568 366.784 25.7653 366.656 25.904C366.528 26.0427 366.341 26.112 366.096 26.112ZM378.099 26C377.811 26 377.587 25.9253 377.427 25.776C377.277 25.616 377.203 25.392 377.203 25.104V15.616C377.203 15.328 377.277 15.1093 377.427 14.96C377.587 14.8 377.811 14.72 378.099 14.72H383.939C384.163 14.72 384.333 14.7787 384.451 14.896C384.568 15.0027 384.627 15.1627 384.627 15.376C384.627 15.6 384.568 15.7707 384.451 15.888C384.333 16.0053 384.163 16.064 383.939 16.064H378.803V19.6H383.587C383.821 19.6 383.992 19.6587 384.099 19.776C384.216 19.8933 384.275 20.0587 384.275 20.272C384.275 20.496 384.216 20.6667 384.099 20.784C383.992 20.8907 383.821 20.944 383.587 20.944H378.803V24.656H383.939C384.163 24.656 384.333 24.7147 384.451 24.832C384.568 24.9493 384.627 25.1147 384.627 25.328C384.627 25.552 384.568 25.7227 384.451 25.84C384.333 25.9467 384.163 26 383.939 26H378.099ZM390.338 26.112C390.104 26.112 389.912 26.0533 389.762 25.936C389.624 25.8187 389.506 25.6373 389.41 25.392L385.97 15.584C385.874 15.3067 385.89 15.0773 386.018 14.896C386.157 14.704 386.381 14.608 386.69 14.608C386.925 14.608 387.106 14.6613 387.234 14.768C387.373 14.8747 387.48 15.0453 387.554 15.28L390.674 24.464H390.082L393.282 15.312C393.378 15.0773 393.49 14.9013 393.618 14.784C393.746 14.6667 393.917 14.608 394.13 14.608C394.344 14.608 394.509 14.6667 394.626 14.784C394.754 14.9013 394.866 15.0827 394.962 15.328L398.098 24.464H397.57L400.722 15.28C400.797 15.056 400.898 14.8907 401.026 14.784C401.165 14.6667 401.346 14.608 401.57 14.608C401.848 14.608 402.05 14.704 402.178 14.896C402.317 15.0773 402.333 15.3067 402.226 15.584L398.77 25.408C398.674 25.6427 398.557 25.8187 398.418 25.936C398.28 26.0533 398.093 26.112 397.858 26.112C397.613 26.112 397.421 26.0533 397.282 25.936C397.144 25.8187 397.032 25.6373 396.946 25.392L393.922 16.736H394.274L391.218 25.408C391.133 25.6427 391.021 25.8187 390.882 25.936C390.754 26.0533 390.573 26.112 390.338 26.112Z" fill="#B7BABF"/>
<g opacity="0.9">
<path d="M422.128 26.144C421.083 26.144 420.171 25.9093 419.392 25.44C418.624 24.96 418.027 24.288 417.6 23.424C417.184 22.56 416.976 21.536 416.976 20.352C416.976 19.456 417.093 18.656 417.328 17.952C417.573 17.2373 417.92 16.6347 418.368 16.144C418.816 15.6427 419.355 15.2587 419.984 14.992C420.624 14.7147 421.339 14.576 422.128 14.576C423.195 14.576 424.112 14.8107 424.88 15.28C425.659 15.7493 426.256 16.416 426.672 17.28C427.099 18.1333 427.312 19.152 427.312 20.336C427.312 21.232 427.189 22.0373 426.944 22.752C426.699 23.4667 426.352 24.0747 425.904 24.576C425.456 25.0773 424.912 25.4667 424.272 25.744C423.643 26.0107 422.928 26.144 422.128 26.144ZM422.128 24.976C422.939 24.976 423.621 24.7947 424.176 24.432C424.741 24.0693 425.173 23.5413 425.472 22.848C425.771 22.1547 425.92 21.3227 425.92 20.352C425.92 18.8907 425.589 17.76 424.928 16.96C424.277 16.1493 423.344 15.744 422.128 15.744C421.339 15.744 420.661 15.9253 420.096 16.288C419.541 16.6507 419.115 17.1787 418.816 17.872C418.517 18.5547 418.368 19.3813 418.368 20.352C418.368 21.8027 418.699 22.9387 419.36 23.76C420.021 24.5707 420.944 24.976 422.128 24.976ZM430.122 26.112C429.908 26.112 429.748 26.0533 429.642 25.936C429.535 25.8187 429.482 25.6533 429.482 25.44V18.768C429.482 18.5547 429.535 18.3947 429.642 18.288C429.748 18.1707 429.903 18.112 430.106 18.112C430.308 18.112 430.463 18.1707 430.57 18.288C430.687 18.3947 430.746 18.5547 430.746 18.768V20.144L430.57 19.952C430.794 19.3333 431.156 18.8693 431.658 18.56C432.17 18.24 432.756 18.08 433.418 18.08C434.036 18.08 434.548 18.192 434.954 18.416C435.37 18.64 435.679 18.9813 435.882 19.44C436.084 19.888 436.186 20.4587 436.186 21.152V25.44C436.186 25.6533 436.127 25.8187 436.01 25.936C435.903 26.0533 435.748 26.112 435.546 26.112C435.332 26.112 435.167 26.0533 435.05 25.936C434.943 25.8187 434.89 25.6533 434.89 25.44V21.232C434.89 20.5067 434.746 19.9787 434.458 19.648C434.18 19.3067 433.732 19.136 433.114 19.136C432.399 19.136 431.828 19.36 431.402 19.808C430.986 20.2453 430.778 20.832 430.778 21.568V25.44C430.778 25.888 430.559 26.112 430.122 26.112ZM440.943 26.144C440.175 26.144 439.589 25.9093 439.183 25.44C438.778 24.9707 438.575 24.2987 438.575 23.424V15.264C438.575 15.0507 438.629 14.8907 438.735 14.784C438.842 14.6667 439.002 14.608 439.215 14.608C439.418 14.608 439.578 14.6667 439.695 14.784C439.813 14.8907 439.871 15.0507 439.871 15.264V23.328C439.871 23.904 439.983 24.336 440.207 24.624C440.442 24.9013 440.783 25.04 441.231 25.04C441.327 25.04 441.413 25.0347 441.487 25.024C441.562 25.0133 441.637 25.008 441.711 25.008C441.829 24.9973 441.909 25.024 441.951 25.088C442.005 25.152 442.031 25.28 442.031 25.472C442.031 25.664 441.989 25.808 441.903 25.904C441.818 26 441.679 26.064 441.487 26.096C441.402 26.1067 441.311 26.1173 441.215 26.128C441.119 26.1387 441.029 26.144 440.943 26.144ZM444.866 28.992C444.706 28.992 444.578 28.9493 444.482 28.864C444.386 28.7787 444.327 28.6613 444.306 28.512C444.295 28.3733 444.322 28.2293 444.386 28.08L445.49 25.6V26.16L442.418 19.024C442.354 18.864 442.333 18.7147 442.354 18.576C442.375 18.4373 442.439 18.3253 442.546 18.24C442.653 18.1547 442.802 18.112 442.994 18.112C443.165 18.112 443.298 18.1493 443.394 18.224C443.49 18.2987 443.575 18.432 443.65 18.624L446.274 25.056H445.842L448.498 18.624C448.583 18.432 448.674 18.2987 448.77 18.224C448.866 18.1493 449.005 18.112 449.186 18.112C449.357 18.112 449.485 18.1547 449.57 18.24C449.666 18.3253 449.719 18.4373 449.73 18.576C449.751 18.704 449.73 18.848 449.666 19.008L445.57 28.48C445.485 28.672 445.389 28.8053 445.282 28.88C445.186 28.9547 445.047 28.992 444.866 28.992ZM456.746 26C456.554 26 456.404 25.952 456.298 25.856C456.191 25.7493 456.138 25.6053 456.138 25.424C456.138 25.2427 456.191 25.1093 456.298 25.024C456.404 24.928 456.554 24.88 456.746 24.88H458.826V15.808H459.514L457.194 17.344C457.055 17.4187 456.922 17.4507 456.794 17.44C456.676 17.4293 456.575 17.3867 456.49 17.312C456.415 17.2267 456.362 17.1307 456.33 17.024C456.298 16.9067 456.303 16.7893 456.346 16.672C456.388 16.544 456.479 16.4373 456.618 16.352L458.826 14.896C458.964 14.8107 459.098 14.7413 459.226 14.688C459.354 14.6347 459.482 14.608 459.61 14.608C459.759 14.608 459.882 14.656 459.978 14.752C460.084 14.8373 460.138 14.976 460.138 15.168V24.88H462.058C462.25 24.88 462.399 24.928 462.506 25.024C462.612 25.1093 462.666 25.2427 462.666 25.424C462.666 25.616 462.612 25.76 462.506 25.856C462.399 25.952 462.25 26 462.058 26H456.746ZM468.531 26.144C467.913 26.144 467.289 26.0533 466.659 25.872C466.041 25.6907 465.502 25.424 465.043 25.072C464.905 24.976 464.814 24.8693 464.771 24.752C464.729 24.624 464.718 24.5067 464.739 24.4C464.771 24.2827 464.83 24.1867 464.915 24.112C465.001 24.0267 465.102 23.9787 465.219 23.968C465.347 23.9573 465.486 24 465.635 24.096C466.105 24.4053 466.574 24.6293 467.043 24.768C467.513 24.9067 467.998 24.976 468.499 24.976C469.043 24.976 469.502 24.896 469.875 24.736C470.249 24.576 470.531 24.3413 470.723 24.032C470.915 23.712 471.011 23.3227 471.011 22.864C471.011 22.2027 470.793 21.7013 470.355 21.36C469.918 21.0187 469.283 20.848 468.451 20.848H467.315C467.113 20.848 466.958 20.8 466.851 20.704C466.745 20.5973 466.691 20.4533 466.691 20.272C466.691 20.1013 466.745 19.968 466.851 19.872C466.958 19.7653 467.113 19.712 467.315 19.712H468.339C468.83 19.712 469.246 19.6267 469.587 19.456C469.939 19.2853 470.211 19.0453 470.403 18.736C470.595 18.416 470.691 18.032 470.691 17.584C470.691 16.9867 470.499 16.5333 470.115 16.224C469.731 15.904 469.177 15.744 468.451 15.744C467.971 15.744 467.518 15.8133 467.091 15.952C466.665 16.0907 466.243 16.3253 465.827 16.656C465.699 16.752 465.571 16.8 465.443 16.8C465.326 16.7893 465.225 16.752 465.139 16.688C465.065 16.6133 465.006 16.5173 464.963 16.4C464.931 16.2827 464.937 16.1653 464.979 16.048C465.022 15.92 465.113 15.8027 465.251 15.696C465.678 15.3333 466.179 15.056 466.755 14.864C467.331 14.672 467.923 14.576 468.531 14.576C469.257 14.576 469.875 14.6933 470.387 14.928C470.91 15.152 471.31 15.4827 471.587 15.92C471.865 16.3467 472.003 16.864 472.003 17.472C472.003 17.9307 471.913 18.352 471.731 18.736C471.561 19.1093 471.315 19.4293 470.995 19.696C470.686 19.9627 470.307 20.1547 469.859 20.272V20.096C470.638 20.224 471.241 20.544 471.667 21.056C472.105 21.5573 472.323 22.192 472.323 22.96C472.323 23.6107 472.169 24.176 471.859 24.656C471.561 25.1253 471.129 25.4933 470.563 25.76C469.998 26.016 469.321 26.144 468.531 26.144ZM478.253 26.016C478.178 26.1547 478.088 26.2453 477.981 26.288C477.874 26.3413 477.768 26.352 477.661 26.32C477.554 26.2987 477.464 26.2453 477.389 26.16C477.314 26.0853 477.266 25.9893 477.245 25.872C477.234 25.7547 477.266 25.6267 477.341 25.488L483.517 14.736C483.592 14.5973 483.682 14.5067 483.789 14.464C483.896 14.4107 484.002 14.4 484.109 14.432C484.216 14.4533 484.306 14.5067 484.381 14.592C484.456 14.6773 484.498 14.7787 484.509 14.896C484.53 15.0133 484.504 15.136 484.429 15.264L478.253 26.016ZM477.069 21.488C476.216 21.488 475.549 21.184 475.069 20.576C474.589 19.968 474.349 19.12 474.349 18.032C474.349 17.3067 474.456 16.688 474.669 16.176C474.893 15.664 475.208 15.2747 475.613 15.008C476.018 14.7307 476.504 14.592 477.069 14.592C477.912 14.592 478.573 14.896 479.053 15.504C479.544 16.1013 479.789 16.944 479.789 18.032C479.789 18.7573 479.677 19.376 479.453 19.888C479.24 20.4 478.93 20.7947 478.525 21.072C478.12 21.3493 477.634 21.488 477.069 21.488ZM477.069 20.544C477.4 20.544 477.682 20.448 477.917 20.256C478.162 20.064 478.349 19.7813 478.477 19.408C478.605 19.0347 478.669 18.576 478.669 18.032C478.669 17.2 478.525 16.576 478.237 16.16C477.949 15.744 477.56 15.536 477.069 15.536C476.738 15.536 476.45 15.632 476.205 15.824C475.97 16.0053 475.789 16.2827 475.661 16.656C475.533 17.0187 475.469 17.4773 475.469 18.032C475.469 18.864 475.608 19.4933 475.885 19.92C476.173 20.336 476.568 20.544 477.069 20.544ZM484.717 26.144C483.874 26.144 483.208 25.84 482.717 25.232C482.237 24.624 481.997 23.776 481.997 22.688C481.997 21.9627 482.104 21.344 482.317 20.832C482.541 20.32 482.856 19.9307 483.261 19.664C483.677 19.3867 484.162 19.248 484.717 19.248C485.57 19.248 486.237 19.552 486.717 20.16C487.197 20.7573 487.437 21.6 487.437 22.688C487.437 23.4133 487.33 24.0373 487.117 24.56C486.904 25.072 486.594 25.4667 486.189 25.744C485.784 26.0107 485.293 26.144 484.717 26.144ZM484.717 25.2C485.058 25.2 485.346 25.1093 485.581 24.928C485.816 24.736 485.997 24.4533 486.125 24.08C486.253 23.7067 486.317 23.2427 486.317 22.688C486.317 21.856 486.173 21.232 485.885 20.816C485.608 20.4 485.218 20.192 484.717 20.192C484.386 20.192 484.098 20.288 483.853 20.48C483.618 20.6613 483.437 20.9387 483.309 21.312C483.192 21.6747 483.133 22.1333 483.133 22.688C483.133 23.5307 483.272 24.16 483.549 24.576C483.837 24.992 484.226 25.2 484.717 25.2ZM496.117 26.144C495.584 26.144 495.104 26.0427 494.677 25.84C494.261 25.6267 493.93 25.3387 493.685 24.976C493.44 24.6133 493.317 24.208 493.317 23.76C493.317 23.184 493.461 22.7307 493.749 22.4C494.048 22.0693 494.533 21.8347 495.205 21.696C495.888 21.5573 496.816 21.488 497.989 21.488H498.709V22.336H498.005C497.141 22.336 496.458 22.3787 495.957 22.464C495.466 22.5387 495.12 22.672 494.917 22.864C494.725 23.056 494.629 23.328 494.629 23.68C494.629 24.1173 494.778 24.4747 495.077 24.752C495.386 25.0293 495.802 25.168 496.325 25.168C496.752 25.168 497.125 25.0667 497.445 24.864C497.776 24.6613 498.032 24.384 498.213 24.032C498.405 23.68 498.501 23.2747 498.501 22.816V20.992C498.501 20.3307 498.368 19.856 498.101 19.568C497.834 19.2693 497.397 19.12 496.789 19.12C496.416 19.12 496.042 19.168 495.669 19.264C495.296 19.36 494.901 19.5147 494.485 19.728C494.336 19.8027 494.208 19.8293 494.101 19.808C493.994 19.776 493.909 19.7173 493.845 19.632C493.781 19.5467 493.744 19.4507 493.733 19.344C493.722 19.2267 493.744 19.1147 493.797 19.008C493.861 18.9013 493.957 18.816 494.085 18.752C494.554 18.5173 495.018 18.3467 495.477 18.24C495.936 18.1333 496.373 18.08 496.789 18.08C497.461 18.08 498.016 18.192 498.453 18.416C498.89 18.6293 499.216 18.96 499.429 19.408C499.642 19.8453 499.749 20.4107 499.749 21.104V25.44C499.749 25.6533 499.696 25.8187 499.589 25.936C499.493 26.0533 499.349 26.112 499.157 26.112C498.954 26.112 498.8 26.0533 498.693 25.936C498.586 25.8187 498.533 25.6533 498.533 25.44V24.192H498.677C498.592 24.5973 498.426 24.944 498.181 25.232C497.946 25.52 497.653 25.744 497.301 25.904C496.949 26.064 496.554 26.144 496.117 26.144ZM502.81 26.112C502.596 26.112 502.431 26.0533 502.314 25.936C502.207 25.8187 502.154 25.6533 502.154 25.44V18.768C502.154 18.5547 502.207 18.3947 502.314 18.288C502.42 18.1707 502.575 18.112 502.778 18.112C502.98 18.112 503.135 18.1707 503.242 18.288C503.359 18.3947 503.418 18.5547 503.418 18.768V20.064H503.258C503.428 19.4347 503.754 18.9493 504.234 18.608C504.714 18.2667 505.306 18.0853 506.01 18.064C506.17 18.0533 506.298 18.0907 506.394 18.176C506.49 18.2507 506.543 18.384 506.554 18.576C506.564 18.7573 506.522 18.9013 506.426 19.008C506.33 19.1147 506.18 19.1787 505.978 19.2L505.722 19.232C504.996 19.296 504.436 19.5307 504.042 19.936C503.658 20.3307 503.466 20.8747 503.466 21.568V25.44C503.466 25.6533 503.407 25.8187 503.289 25.936C503.183 26.0533 503.023 26.112 502.81 26.112ZM511.298 26.144C510.477 26.144 509.767 25.984 509.17 25.664C508.583 25.3333 508.125 24.8693 507.794 24.272C507.474 23.6747 507.314 22.96 507.314 22.128C507.314 21.3173 507.474 20.6133 507.794 20.016C508.114 19.408 508.551 18.9333 509.106 18.592C509.671 18.2507 510.322 18.08 511.058 18.08C511.581 18.08 512.05 18.1707 512.466 18.352C512.882 18.5227 513.234 18.7733 513.522 19.104C513.821 19.4347 514.045 19.8347 514.194 20.304C514.354 20.7733 514.434 21.3013 514.434 21.888C514.434 22.0587 514.386 22.1867 514.29 22.272C514.194 22.3467 514.055 22.384 513.874 22.384H508.306V21.536H513.57L513.314 21.744C513.314 21.168 513.229 20.6827 513.058 20.288C512.887 19.8827 512.637 19.5733 512.306 19.36C511.986 19.1467 511.581 19.04 511.09 19.04C510.546 19.04 510.082 19.168 509.698 19.424C509.325 19.6693 509.042 20.016 508.85 20.464C508.658 20.9013 508.562 21.4133 508.562 22V22.096C508.562 23.0773 508.797 23.824 509.266 24.336C509.746 24.848 510.423 25.104 511.298 25.104C511.661 25.104 512.018 25.056 512.37 24.96C512.733 24.864 513.085 24.704 513.426 24.48C513.575 24.384 513.709 24.3413 513.826 24.352C513.954 24.352 514.055 24.3893 514.13 24.464C514.205 24.528 514.253 24.6133 514.274 24.72C514.306 24.816 514.295 24.9227 514.242 25.04C514.199 25.1573 514.109 25.2587 513.97 25.344C513.618 25.6 513.202 25.7973 512.722 25.936C512.242 26.0747 511.767 26.144 511.298 26.144ZM521.075 26.112C520.861 26.112 520.701 26.0533 520.595 25.936C520.488 25.8187 520.435 25.6533 520.435 25.44V15.264C520.435 15.0507 520.488 14.8907 520.595 14.784C520.701 14.6667 520.861 14.608 521.075 14.608C521.277 14.608 521.437 14.6667 521.555 14.784C521.672 14.8907 521.731 15.0507 521.731 15.264V19.952H521.523C521.747 19.3333 522.109 18.8693 522.611 18.56C523.123 18.24 523.709 18.08 524.371 18.08C524.989 18.08 525.501 18.192 525.907 18.416C526.323 18.64 526.632 18.9813 526.835 19.44C527.037 19.888 527.139 20.4587 527.139 21.152V25.44C527.139 25.6533 527.08 25.8187 526.963 25.936C526.856 26.0533 526.701 26.112 526.499 26.112C526.285 26.112 526.12 26.0533 526.003 25.936C525.896 25.8187 525.843 25.6533 525.843 25.44V21.232C525.843 20.5067 525.699 19.9787 525.411 19.648C525.133 19.3067 524.685 19.136 524.067 19.136C523.352 19.136 522.781 19.36 522.355 19.808C521.939 20.2453 521.731 20.832 521.731 21.568V25.44C521.731 25.888 521.512 26.112 521.075 26.112ZM531.977 26.144C531.443 26.144 530.963 26.0427 530.537 25.84C530.121 25.6267 529.79 25.3387 529.545 24.976C529.299 24.6133 529.177 24.208 529.177 23.76C529.177 23.184 529.321 22.7307 529.609 22.4C529.907 22.0693 530.393 21.8347 531.065 21.696C531.747 21.5573 532.675 21.488 533.849 21.488H534.569V22.336H533.865C533.001 22.336 532.318 22.3787 531.817 22.464C531.326 22.5387 530.979 22.672 530.777 22.864C530.585 23.056 530.489 23.328 530.489 23.68C530.489 24.1173 530.638 24.4747 530.937 24.752C531.246 25.0293 531.662 25.168 532.185 25.168C532.611 25.168 532.985 25.0667 533.305 24.864C533.635 24.6613 533.891 24.384 534.073 24.032C534.265 23.68 534.361 23.2747 534.361 22.816V20.992C534.361 20.3307 534.227 19.856 533.961 19.568C533.694 19.2693 533.257 19.12 532.649 19.12C532.275 19.12 531.902 19.168 531.529 19.264C531.155 19.36 530.761 19.5147 530.345 19.728C530.195 19.8027 530.067 19.8293 529.961 19.808C529.854 19.776 529.769 19.7173 529.705 19.632C529.641 19.5467 529.603 19.4507 529.593 19.344C529.582 19.2267 529.603 19.1147 529.657 19.008C529.721 18.9013 529.817 18.816 529.945 18.752C530.414 18.5173 530.878 18.3467 531.337 18.24C531.795 18.1333 532.233 18.08 532.649 18.08C533.321 18.08 533.875 18.192 534.313 18.416C534.75 18.6293 535.075 18.96 535.289 19.408C535.502 19.8453 535.609 20.4107 535.609 21.104V25.44C535.609 25.6533 535.555 25.8187 535.449 25.936C535.353 26.0533 535.209 26.112 535.017 26.112C534.814 26.112 534.659 26.0533 534.553 25.936C534.446 25.8187 534.393 25.6533 534.393 25.44V24.192H534.537C534.451 24.5973 534.286 24.944 534.041 25.232C533.806 25.52 533.513 25.744 533.161 25.904C532.809 26.064 532.414 26.144 531.977 26.144ZM538.653 28.992C538.44 28.992 538.28 28.9333 538.173 28.816C538.066 28.7093 538.013 28.5493 538.013 28.336V18.768C538.013 18.5547 538.066 18.3947 538.173 18.288C538.28 18.1707 538.434 18.112 538.637 18.112C538.85 18.112 539.01 18.1707 539.117 18.288C539.234 18.3947 539.293 18.5547 539.293 18.768V20.288L539.117 20.064C539.288 19.456 539.624 18.976 540.125 18.624C540.637 18.2613 541.245 18.08 541.949 18.08C542.642 18.08 543.245 18.2453 543.757 18.576C544.28 18.896 544.68 19.36 544.957 19.968C545.245 20.5653 545.389 21.28 545.389 22.112C545.389 22.9333 545.245 23.648 544.957 24.256C544.68 24.8533 544.285 25.3173 543.773 25.648C543.261 25.9787 542.653 26.144 541.949 26.144C541.245 26.144 540.642 25.968 540.141 25.616C539.64 25.2533 539.298 24.7733 539.117 24.176H539.309V28.336C539.309 28.5493 539.25 28.7093 539.133 28.816C539.016 28.9333 538.856 28.992 538.653 28.992ZM541.677 25.104C542.168 25.104 542.589 24.9867 542.941 24.752C543.304 24.5173 543.581 24.176 543.773 23.728C543.976 23.28 544.077 22.7413 544.077 22.112C544.077 21.1413 543.858 20.4 543.421 19.888C542.994 19.376 542.413 19.12 541.677 19.12C541.197 19.12 540.776 19.2373 540.413 19.472C540.05 19.696 539.768 20.032 539.565 20.48C539.373 20.9173 539.277 21.4613 539.277 22.112C539.277 23.072 539.496 23.8133 539.933 24.336C540.37 24.848 540.952 25.104 541.677 25.104ZM547.981 28.992C547.768 28.992 547.608 28.9333 547.501 28.816C547.394 28.7093 547.341 28.5493 547.341 28.336V18.768C547.341 18.5547 547.394 18.3947 547.501 18.288C547.608 18.1707 547.762 18.112 547.965 18.112C548.178 18.112 548.338 18.1707 548.445 18.288C548.562 18.3947 548.621 18.5547 548.621 18.768V20.288L548.445 20.064C548.616 19.456 548.952 18.976 549.453 18.624C549.965 18.2613 550.573 18.08 551.277 18.08C551.97 18.08 552.573 18.2453 553.085 18.576C553.608 18.896 554.008 19.36 554.285 19.968C554.573 20.5653 554.717 21.28 554.717 22.112C554.717 22.9333 554.573 23.648 554.285 24.256C554.008 24.8533 553.613 25.3173 553.101 25.648C552.589 25.9787 551.981 26.144 551.277 26.144C550.573 26.144 549.97 25.968 549.469 25.616C548.968 25.2533 548.626 24.7733 548.445 24.176H548.637V28.336C548.637 28.5493 548.578 28.7093 548.461 28.816C548.344 28.9333 548.184 28.992 547.981 28.992ZM551.005 25.104C551.496 25.104 551.917 24.9867 552.269 24.752C552.632 24.5173 552.909 24.176 553.101 23.728C553.304 23.28 553.405 22.7413 553.405 22.112C553.405 21.1413 553.186 20.4 552.749 19.888C552.322 19.376 551.741 19.12 551.005 19.12C550.525 19.12 550.104 19.2373 549.741 19.472C549.378 19.696 549.096 20.032 548.893 20.48C548.701 20.9173 548.605 21.4613 548.605 22.112C548.605 23.072 548.824 23.8133 549.261 24.336C549.698 24.848 550.28 25.104 551.005 25.104ZM558.288 28.992C558.128 28.992 558 28.9493 557.904 28.864C557.808 28.7787 557.749 28.6613 557.728 28.512C557.717 28.3733 557.744 28.2293 557.808 28.08L558.912 25.6V26.16L555.84 19.024C555.776 18.864 555.754 18.7147 555.776 18.576C555.797 18.4373 555.861 18.3253 555.968 18.24C556.074 18.1547 556.224 18.112 556.416 18.112C556.586 18.112 556.72 18.1493 556.816 18.224C556.912 18.2987 556.997 18.432 557.072 18.624L559.696 25.056H559.264L561.92 18.624C562.005 18.432 562.096 18.2987 562.192 18.224C562.288 18.1493 562.426 18.112 562.608 18.112C562.778 18.112 562.906 18.1547 562.992 18.24C563.088 18.3253 563.141 18.4373 563.152 18.576C563.173 18.704 563.152 18.848 563.088 19.008L558.992 28.48C558.906 28.672 558.81 28.8053 558.704 28.88C558.608 28.9547 558.469 28.992 558.288 28.992ZM571.592 26.112C571.41 26.112 571.25 26.064 571.112 25.968C570.973 25.872 570.861 25.7173 570.776 25.504L568.392 19.024C568.328 18.8427 568.306 18.6827 568.328 18.544C568.36 18.4053 568.429 18.2987 568.536 18.224C568.642 18.1493 568.776 18.112 568.936 18.112C569.096 18.112 569.224 18.1493 569.32 18.224C569.426 18.2987 569.512 18.4373 569.576 18.64L571.816 25.04H571.432L573.736 18.64C573.81 18.448 573.901 18.3147 574.008 18.24C574.125 18.1547 574.274 18.112 574.456 18.112C574.626 18.112 574.77 18.1547 574.888 18.24C575.005 18.3253 575.096 18.4587 575.16 18.64L577.416 25.04H577.048L579.32 18.608C579.394 18.416 579.485 18.288 579.592 18.224C579.698 18.1493 579.826 18.112 579.976 18.112C580.146 18.112 580.274 18.1547 580.36 18.24C580.456 18.3253 580.509 18.4373 580.52 18.576C580.53 18.7147 580.504 18.864 580.44 19.024L578.056 25.504C577.981 25.7067 577.869 25.8613 577.72 25.968C577.581 26.064 577.421 26.112 577.24 26.112C577.058 26.112 576.898 26.064 576.76 25.968C576.621 25.8613 576.514 25.7067 576.44 25.504L574.072 19.008H574.76L572.408 25.504C572.333 25.7067 572.226 25.8613 572.088 25.968C571.949 26.064 571.784 26.112 571.592 26.112ZM582.997 26.08C582.783 26.08 582.623 26.0213 582.517 25.904C582.41 25.776 582.357 25.6 582.357 25.376V18.832C582.357 18.608 582.41 18.4373 582.517 18.32C582.623 18.2027 582.783 18.144 582.997 18.144C583.199 18.144 583.359 18.2027 583.477 18.32C583.594 18.4373 583.653 18.608 583.653 18.832V25.376C583.653 25.6 583.594 25.776 583.477 25.904C583.37 26.0213 583.21 26.08 582.997 26.08ZM582.997 16.352C582.73 16.352 582.522 16.2827 582.373 16.144C582.223 15.9947 582.149 15.7973 582.149 15.552C582.149 15.296 582.223 15.104 582.373 14.976C582.522 14.8373 582.73 14.768 582.997 14.768C583.274 14.768 583.482 14.8373 583.621 14.976C583.77 15.104 583.845 15.296 583.845 15.552C583.845 15.7973 583.77 15.9947 583.621 16.144C583.482 16.2827 583.274 16.352 582.997 16.352ZM589.195 26.144C588.587 26.144 588.075 26.0373 587.659 25.824C587.254 25.6 586.95 25.28 586.747 24.864C586.545 24.4373 586.443 23.92 586.443 23.312V19.232H585.371C585.19 19.232 585.051 19.1893 584.955 19.104C584.859 19.008 584.811 18.88 584.811 18.72C584.811 18.56 584.859 18.4373 584.955 18.352C585.051 18.2667 585.19 18.224 585.371 18.224H586.443V16.384C586.443 16.1707 586.502 16.0107 586.619 15.904C586.737 15.7867 586.897 15.728 587.099 15.728C587.302 15.728 587.457 15.7867 587.563 15.904C587.681 16.0107 587.739 16.1707 587.739 16.384V18.224H589.755C589.937 18.224 590.075 18.2667 590.171 18.352C590.267 18.4373 590.315 18.56 590.315 18.72C590.315 18.88 590.267 19.008 590.171 19.104C590.075 19.1893 589.937 19.232 589.755 19.232H587.739V23.184C587.739 23.792 587.867 24.256 588.123 24.576C588.379 24.8853 588.795 25.04 589.371 25.04C589.574 25.04 589.745 25.0187 589.883 24.976C590.033 24.9333 590.155 24.912 590.251 24.912C590.347 24.9013 590.427 24.9333 590.491 25.008C590.555 25.0827 590.587 25.2107 590.587 25.392C590.587 25.52 590.561 25.6373 590.507 25.744C590.465 25.8507 590.385 25.9253 590.267 25.968C590.139 26.0107 589.969 26.048 589.755 26.08C589.553 26.1227 589.366 26.144 589.195 26.144ZM592.403 26.112C592.19 26.112 592.03 26.0533 591.923 25.936C591.816 25.8187 591.763 25.6533 591.763 25.44V15.264C591.763 15.0507 591.816 14.8907 591.923 14.784C592.03 14.6667 592.19 14.608 592.403 14.608C592.606 14.608 592.766 14.6667 592.883 14.784C593 14.8907 593.059 15.0507 593.059 15.264V19.952H592.851C593.075 19.3333 593.438 18.8693 593.939 18.56C594.451 18.24 595.038 18.08 595.699 18.08C596.318 18.08 596.83 18.192 597.235 18.416C597.651 18.64 597.96 18.9813 598.163 19.44C598.366 19.888 598.467 20.4587 598.467 21.152V25.44C598.467 25.6533 598.408 25.8187 598.291 25.936C598.184 26.0533 598.03 26.112 597.827 26.112C597.614 26.112 597.448 26.0533 597.331 25.936C597.224 25.8187 597.171 25.6533 597.171 25.44V21.232C597.171 20.5067 597.027 19.9787 596.739 19.648C596.462 19.3067 596.014 19.136 595.395 19.136C594.68 19.136 594.11 19.36 593.683 19.808C593.267 20.2453 593.059 20.832 593.059 21.568V25.44C593.059 25.888 592.84 26.112 592.403 26.112ZM608.102 26.144C607.494 26.144 606.982 26.0373 606.566 25.824C606.16 25.6 605.856 25.28 605.654 24.864C605.451 24.4373 605.35 23.92 605.35 23.312V19.232H604.278C604.096 19.232 603.958 19.1893 603.862 19.104C603.766 19.008 603.718 18.88 603.718 18.72C603.718 18.56 603.766 18.4373 603.862 18.352C603.958 18.2667 604.096 18.224 604.278 18.224H605.35V16.384C605.35 16.1707 605.408 16.0107 605.526 15.904C605.643 15.7867 605.803 15.728 606.006 15.728C606.208 15.728 606.363 15.7867 606.47 15.904C606.587 16.0107 606.646 16.1707 606.646 16.384V18.224H608.662C608.843 18.224 608.982 18.2667 609.078 18.352C609.174 18.4373 609.222 18.56 609.222 18.72C609.222 18.88 609.174 19.008 609.078 19.104C608.982 19.1893 608.843 19.232 608.662 19.232H606.646V23.184C606.646 23.792 606.774 24.256 607.03 24.576C607.286 24.8853 607.702 25.04 608.278 25.04C608.48 25.04 608.651 25.0187 608.79 24.976C608.939 24.9333 609.062 24.912 609.158 24.912C609.254 24.9013 609.334 24.9333 609.398 25.008C609.462 25.0827 609.494 25.2107 609.494 25.392C609.494 25.52 609.467 25.6373 609.414 25.744C609.371 25.8507 609.291 25.9253 609.174 25.968C609.046 26.0107 608.875 26.048 608.662 26.08C608.459 26.1227 608.272 26.144 608.102 26.144ZM611.309 26.112C611.096 26.112 610.936 26.0533 610.829 25.936C610.722 25.8187 610.669 25.6533 610.669 25.44V15.264C610.669 15.0507 610.722 14.8907 610.829 14.784C610.936 14.6667 611.096 14.608 611.309 14.608C611.512 14.608 611.672 14.6667 611.789 14.784C611.906 14.8907 611.965 15.0507 611.965 15.264V19.952H611.757C611.981 19.3333 612.344 18.8693 612.845 18.56C613.357 18.24 613.944 18.08 614.605 18.08C615.224 18.08 615.736 18.192 616.141 18.416C616.557 18.64 616.866 18.9813 617.069 19.44C617.272 19.888 617.373 20.4587 617.373 21.152V25.44C617.373 25.6533 617.314 25.8187 617.197 25.936C617.09 26.0533 616.936 26.112 616.733 26.112C616.52 26.112 616.354 26.0533 616.237 25.936C616.13 25.8187 616.077 25.6533 616.077 25.44V21.232C616.077 20.5067 615.933 19.9787 615.645 19.648C615.368 19.3067 614.92 19.136 614.301 19.136C613.586 19.136 613.016 19.36 612.589 19.808C612.173 20.2453 611.965 20.832 611.965 21.568V25.44C611.965 25.888 611.746 26.112 611.309 26.112ZM623.267 26.144C622.446 26.144 621.736 25.984 621.139 25.664C620.552 25.3333 620.094 24.8693 619.763 24.272C619.443 23.6747 619.283 22.96 619.283 22.128C619.283 21.3173 619.443 20.6133 619.763 20.016C620.083 19.408 620.52 18.9333 621.075 18.592C621.64 18.2507 622.291 18.08 623.027 18.08C623.55 18.08 624.019 18.1707 624.435 18.352C624.851 18.5227 625.203 18.7733 625.491 19.104C625.79 19.4347 626.014 19.8347 626.163 20.304C626.323 20.7733 626.403 21.3013 626.403 21.888C626.403 22.0587 626.355 22.1867 626.259 22.272C626.163 22.3467 626.024 22.384 625.843 22.384H620.275V21.536H625.539L625.283 21.744C625.283 21.168 625.198 20.6827 625.027 20.288C624.856 19.8827 624.606 19.5733 624.275 19.36C623.955 19.1467 623.55 19.04 623.059 19.04C622.515 19.04 622.051 19.168 621.667 19.424C621.294 19.6693 621.011 20.016 620.819 20.464C620.627 20.9013 620.531 21.4133 620.531 22V22.096C620.531 23.0773 620.766 23.824 621.235 24.336C621.715 24.848 622.392 25.104 623.267 25.104C623.63 25.104 623.987 25.056 624.339 24.96C624.702 24.864 625.054 24.704 625.395 24.48C625.544 24.384 625.678 24.3413 625.795 24.352C625.923 24.352 626.024 24.3893 626.099 24.464C626.174 24.528 626.222 24.6133 626.243 24.72C626.275 24.816 626.264 24.9227 626.211 25.04C626.168 25.1573 626.078 25.2587 625.939 25.344C625.587 25.6 625.171 25.7973 624.691 25.936C624.211 26.0747 623.736 26.144 623.267 26.144ZM628.919 26.08C628.705 26.08 628.545 26.0213 628.439 25.904C628.332 25.776 628.279 25.6 628.279 25.376V18.832C628.279 18.608 628.332 18.4373 628.439 18.32C628.545 18.2027 628.705 18.144 628.919 18.144C629.121 18.144 629.281 18.2027 629.399 18.32C629.516 18.4373 629.575 18.608 629.575 18.832V25.376C629.575 25.6 629.516 25.776 629.399 25.904C629.292 26.0213 629.132 26.08 628.919 26.08ZM628.919 16.352C628.652 16.352 628.444 16.2827 628.295 16.144C628.145 15.9947 628.071 15.7973 628.071 15.552C628.071 15.296 628.145 15.104 628.295 14.976C628.444 14.8373 628.652 14.768 628.919 14.768C629.196 14.768 629.404 14.8373 629.543 14.976C629.692 15.104 629.767 15.296 629.767 15.552C629.767 15.7973 629.692 15.9947 629.543 16.144C629.404 16.2827 629.196 16.352 628.919 16.352ZM632.653 26.112C632.44 26.112 632.275 26.0533 632.157 25.936C632.051 25.8187 631.997 25.6533 631.997 25.44V18.768C631.997 18.5547 632.051 18.3947 632.157 18.288C632.264 18.1707 632.419 18.112 632.621 18.112C632.824 18.112 632.979 18.1707 633.085 18.288C633.203 18.3947 633.261 18.5547 633.261 18.768V20.064H633.101C633.272 19.4347 633.597 18.9493 634.077 18.608C634.557 18.2667 635.149 18.0853 635.853 18.064C636.013 18.0533 636.141 18.0907 636.237 18.176C636.333 18.2507 636.387 18.384 636.397 18.576C636.408 18.7573 636.365 18.9013 636.269 19.008C636.173 19.1147 636.024 19.1787 635.821 19.2L635.565 19.232C634.84 19.296 634.28 19.5307 633.885 19.936C633.501 20.3307 633.309 20.8747 633.309 21.568V25.44C633.309 25.6533 633.251 25.8187 633.133 25.936C633.027 26.0533 632.867 26.112 632.653 26.112ZM646.913 26.144C645.803 26.144 644.854 25.9093 644.065 25.44C643.275 24.9707 642.667 24.304 642.241 23.44C641.825 22.576 641.617 21.5467 641.617 20.352C641.617 19.456 641.734 18.656 641.969 17.952C642.214 17.2373 642.561 16.6347 643.009 16.144C643.467 15.6427 644.027 15.2587 644.689 14.992C645.35 14.7147 646.091 14.576 646.913 14.576C647.574 14.576 648.203 14.672 648.801 14.864C649.398 15.0453 649.915 15.3173 650.353 15.68C650.491 15.7867 650.582 15.9093 650.625 16.048C650.678 16.176 650.683 16.304 650.641 16.432C650.609 16.5493 650.545 16.6507 650.449 16.736C650.363 16.8107 650.257 16.848 650.129 16.848C650.001 16.848 649.857 16.7947 649.697 16.688C649.313 16.3787 648.891 16.1493 648.433 16C647.974 15.8507 647.478 15.776 646.945 15.776C646.102 15.776 645.387 15.9573 644.801 16.32C644.214 16.672 643.771 17.1893 643.473 17.872C643.174 18.5547 643.025 19.3813 643.025 20.352C643.025 21.3227 643.174 22.1547 643.473 22.848C643.771 23.5307 644.214 24.0533 644.801 24.416C645.387 24.768 646.102 24.944 646.945 24.944C647.467 24.944 647.963 24.8693 648.433 24.72C648.902 24.56 649.334 24.3253 649.729 24.016C649.889 23.9093 650.033 23.8613 650.161 23.872C650.289 23.872 650.395 23.9093 650.481 23.984C650.566 24.0587 650.625 24.1547 650.657 24.272C650.699 24.3893 650.699 24.512 650.657 24.64C650.625 24.768 650.545 24.88 650.417 24.976C649.969 25.36 649.441 25.6533 648.833 25.856C648.235 26.048 647.595 26.144 646.913 26.144ZM653.438 26.112C653.246 26.112 653.097 26.0587 652.99 25.952C652.884 25.8347 652.83 25.6747 652.83 25.472V15.248C652.83 15.0347 652.884 14.8747 652.99 14.768C653.097 14.6613 653.246 14.608 653.438 14.608C653.609 14.608 653.742 14.6453 653.838 14.72C653.945 14.784 654.041 14.896 654.126 15.056L658.51 23.312H658.03L662.398 15.056C662.484 14.896 662.574 14.784 662.67 14.72C662.766 14.6453 662.905 14.608 663.086 14.608C663.268 14.608 663.412 14.6613 663.518 14.768C663.625 14.8747 663.678 15.0347 663.678 15.248V25.472C663.678 25.6747 663.625 25.8347 663.518 25.952C663.422 26.0587 663.273 26.112 663.07 26.112C662.878 26.112 662.729 26.0587 662.622 25.952C662.516 25.8347 662.462 25.6747 662.462 25.472V16.48H662.846L658.846 23.984C658.772 24.1227 658.692 24.224 658.606 24.288C658.532 24.3413 658.42 24.368 658.27 24.368C658.121 24.368 658.004 24.336 657.918 24.272C657.833 24.208 657.758 24.112 657.694 23.984L653.646 16.464H654.03V25.472C654.03 25.6747 653.977 25.8347 653.87 25.952C653.774 26.0587 653.63 26.112 653.438 26.112ZM670.134 26.144C669.632 26.144 669.142 26.1013 668.662 26.016C668.182 25.9307 667.734 25.808 667.318 25.648C666.912 25.488 666.544 25.2853 666.214 25.04C666.086 24.944 665.995 24.8373 665.942 24.72C665.899 24.592 665.888 24.4693 665.91 24.352C665.942 24.224 665.995 24.1173 666.07 24.032C666.155 23.9467 666.256 23.8987 666.374 23.888C666.491 23.8773 666.619 23.9147 666.758 24C667.238 24.3413 667.75 24.592 668.294 24.752C668.838 24.9013 669.451 24.976 670.134 24.976C671.094 24.976 671.803 24.8 672.262 24.448C672.731 24.0853 672.966 23.6107 672.966 23.024C672.966 22.544 672.795 22.1707 672.454 21.904C672.123 21.6267 671.563 21.408 670.774 21.248L669.11 20.912C668.107 20.6987 667.355 20.352 666.854 19.872C666.363 19.3813 666.118 18.7307 666.118 17.92C666.118 17.4187 666.219 16.9653 666.422 16.56C666.624 16.144 666.907 15.792 667.27 15.504C667.632 15.2053 668.064 14.976 668.566 14.816C669.067 14.656 669.622 14.576 670.23 14.576C670.902 14.576 671.526 14.672 672.102 14.864C672.688 15.0453 673.216 15.3227 673.686 15.696C673.803 15.792 673.883 15.904 673.926 16.032C673.968 16.1493 673.974 16.2667 673.942 16.384C673.91 16.4907 673.851 16.5813 673.766 16.656C673.691 16.7307 673.59 16.7733 673.462 16.784C673.344 16.7947 673.211 16.752 673.062 16.656C672.635 16.336 672.192 16.1067 671.734 15.968C671.275 15.8187 670.768 15.744 670.214 15.744C669.648 15.744 669.158 15.8293 668.742 16C668.336 16.1707 668.016 16.4213 667.782 16.752C667.558 17.072 667.446 17.4453 667.446 17.872C667.446 18.384 667.6 18.7893 667.91 19.088C668.23 19.3867 668.747 19.6053 669.462 19.744L671.126 20.096C672.203 20.32 672.998 20.6613 673.51 21.12C674.032 21.568 674.294 22.1813 674.294 22.96C674.294 23.4293 674.198 23.8613 674.006 24.256C673.814 24.6507 673.536 24.992 673.174 25.28C672.811 25.5573 672.374 25.7707 671.862 25.92C671.35 26.0693 670.774 26.144 670.134 26.144ZM680.663 22.272C680.503 22.272 680.369 22.224 680.263 22.128C680.156 22.0213 680.103 21.8933 680.103 21.744C680.103 21.584 680.156 21.456 680.263 21.36C680.369 21.2533 680.503 21.2 680.663 21.2H684.263C684.412 21.2 684.54 21.2533 684.647 21.36C684.753 21.456 684.807 21.584 684.807 21.744C684.807 21.8933 684.753 22.0213 684.647 22.128C684.54 22.224 684.412 22.272 684.263 22.272H680.663ZM692.081 26C691.846 26 691.665 25.9413 691.537 25.824C691.419 25.696 691.361 25.5147 691.361 25.28V15.44C691.361 15.2053 691.419 15.0293 691.537 14.912C691.665 14.784 691.846 14.72 692.081 14.72H695.169C696.993 14.72 698.401 15.2 699.393 16.16C700.385 17.12 700.881 18.5173 700.881 20.352C700.881 21.2693 700.753 22.08 700.497 22.784C700.251 23.4773 699.883 24.064 699.393 24.544C698.902 25.024 698.305 25.3867 697.601 25.632C696.897 25.8773 696.086 26 695.169 26H692.081ZM692.673 24.88H695.073C695.819 24.88 696.465 24.784 697.009 24.592C697.563 24.4 698.022 24.1173 698.385 23.744C698.758 23.3707 699.035 22.9013 699.217 22.336C699.398 21.76 699.489 21.0987 699.489 20.352C699.489 18.848 699.121 17.7227 698.385 16.976C697.649 16.2187 696.545 15.84 695.073 15.84H692.673V24.88ZM706.292 26.144C705.534 26.144 704.878 25.9787 704.324 25.648C703.769 25.3173 703.337 24.8533 703.028 24.256C702.729 23.648 702.58 22.9333 702.58 22.112C702.58 21.4933 702.665 20.9387 702.836 20.448C703.006 19.9467 703.257 19.52 703.588 19.168C703.918 18.816 704.308 18.5493 704.756 18.368C705.214 18.176 705.726 18.08 706.292 18.08C707.049 18.08 707.705 18.2453 708.26 18.576C708.814 18.9067 709.241 19.376 709.54 19.984C709.849 20.5813 710.004 21.2907 710.004 22.112C710.004 22.7307 709.918 23.2853 709.748 23.776C709.577 24.2667 709.326 24.6933 708.996 25.056C708.665 25.408 708.27 25.68 707.812 25.872C707.364 26.0533 706.857 26.144 706.292 26.144ZM706.292 25.104C706.772 25.104 707.193 24.9867 707.556 24.752C707.918 24.5173 708.196 24.176 708.388 23.728C708.59 23.28 708.692 22.7413 708.692 22.112C708.692 21.1413 708.473 20.4 708.036 19.888C707.609 19.376 707.028 19.12 706.292 19.12C705.801 19.12 705.374 19.2373 705.012 19.472C704.66 19.696 704.382 20.032 704.18 20.48C703.988 20.9173 703.892 21.4613 703.892 22.112C703.892 23.072 704.11 23.8133 704.548 24.336C704.985 24.848 705.566 25.104 706.292 25.104ZM714.529 26.112C714.348 26.112 714.188 26.064 714.049 25.968C713.91 25.872 713.798 25.7173 713.713 25.504L711.329 19.024C711.265 18.8427 711.244 18.6827 711.265 18.544C711.297 18.4053 711.366 18.2987 711.473 18.224C711.58 18.1493 711.713 18.112 711.873 18.112C712.033 18.112 712.161 18.1493 712.257 18.224C712.364 18.2987 712.449 18.4373 712.513 18.64L714.753 25.04H714.369L716.673 18.64C716.748 18.448 716.838 18.3147 716.945 18.24C717.062 18.1547 717.212 18.112 717.393 18.112C717.564 18.112 717.708 18.1547 717.825 18.24C717.942 18.3253 718.033 18.4587 718.097 18.64L720.353 25.04H719.985L722.257 18.608C722.332 18.416 722.422 18.288 722.529 18.224C722.636 18.1493 722.764 18.112 722.913 18.112C723.084 18.112 723.212 18.1547 723.297 18.24C723.393 18.3253 723.446 18.4373 723.457 18.576C723.468 18.7147 723.441 18.864 723.377 19.024L720.993 25.504C720.918 25.7067 720.806 25.8613 720.657 25.968C720.518 26.064 720.358 26.112 720.177 26.112C719.996 26.112 719.836 26.064 719.697 25.968C719.558 25.8613 719.452 25.7067 719.377 25.504L717.009 19.008H717.697L715.345 25.504C715.27 25.7067 715.164 25.8613 715.025 25.968C714.886 26.064 714.721 26.112 714.529 26.112ZM725.934 26.112C725.721 26.112 725.561 26.0533 725.454 25.936C725.347 25.8187 725.294 25.6533 725.294 25.44V18.768C725.294 18.5547 725.347 18.3947 725.454 18.288C725.561 18.1707 725.715 18.112 725.918 18.112C726.121 18.112 726.275 18.1707 726.382 18.288C726.499 18.3947 726.558 18.5547 726.558 18.768V20.144L726.382 19.952C726.606 19.3333 726.969 18.8693 727.47 18.56C727.982 18.24 728.569 18.08 729.23 18.08C729.849 18.08 730.361 18.192 730.766 18.416C731.182 18.64 731.491 18.9813 731.694 19.44C731.897 19.888 731.998 20.4587 731.998 21.152V25.44C731.998 25.6533 731.939 25.8187 731.822 25.936C731.715 26.0533 731.561 26.112 731.358 26.112C731.145 26.112 730.979 26.0533 730.862 25.936C730.755 25.8187 730.702 25.6533 730.702 25.44V21.232C730.702 20.5067 730.558 19.9787 730.27 19.648C729.993 19.3067 729.545 19.136 728.926 19.136C728.211 19.136 727.641 19.36 727.214 19.808C726.798 20.2453 726.59 20.832 726.59 21.568V25.44C726.59 25.888 726.371 26.112 725.934 26.112ZM736.756 26.144C735.988 26.144 735.401 25.9093 734.996 25.44C734.591 24.9707 734.388 24.2987 734.388 23.424V15.264C734.388 15.0507 734.441 14.8907 734.548 14.784C734.655 14.6667 734.815 14.608 735.028 14.608C735.231 14.608 735.391 14.6667 735.508 14.784C735.625 14.8907 735.684 15.0507 735.684 15.264V23.328C735.684 23.904 735.796 24.336 736.02 24.624C736.255 24.9013 736.596 25.04 737.044 25.04C737.14 25.04 737.225 25.0347 737.3 25.024C737.375 25.0133 737.449 25.008 737.524 25.008C737.641 24.9973 737.721 25.024 737.764 25.088C737.817 25.152 737.844 25.28 737.844 25.472C737.844 25.664 737.801 25.808 737.716 25.904C737.631 26 737.492 26.064 737.3 26.096C737.215 26.1067 737.124 26.1173 737.028 26.128C736.932 26.1387 736.841 26.144 736.756 26.144ZM742.276 26.144C741.519 26.144 740.863 25.9787 740.308 25.648C739.753 25.3173 739.321 24.8533 739.012 24.256C738.713 23.648 738.564 22.9333 738.564 22.112C738.564 21.4933 738.649 20.9387 738.82 20.448C738.991 19.9467 739.241 19.52 739.572 19.168C739.903 18.816 740.292 18.5493 740.74 18.368C741.199 18.176 741.711 18.08 742.276 18.08C743.033 18.08 743.689 18.2453 744.244 18.576C744.799 18.9067 745.225 19.376 745.524 19.984C745.833 20.5813 745.988 21.2907 745.988 22.112C745.988 22.7307 745.903 23.2853 745.732 23.776C745.561 24.2667 745.311 24.6933 744.98 25.056C744.649 25.408 744.255 25.68 743.796 25.872C743.348 26.0533 742.841 26.144 742.276 26.144ZM742.276 25.104C742.756 25.104 743.177 24.9867 743.54 24.752C743.903 24.5173 744.18 24.176 744.372 23.728C744.575 23.28 744.676 22.7413 744.676 22.112C744.676 21.1413 744.457 20.4 744.02 19.888C743.593 19.376 743.012 19.12 742.276 19.12C741.785 19.12 741.359 19.2373 740.996 19.472C740.644 19.696 740.367 20.032 740.164 20.48C739.972 20.9173 739.876 21.4613 739.876 22.112C739.876 23.072 740.095 23.8133 740.532 24.336C740.969 24.848 741.551 25.104 742.276 25.104ZM750.383 26.144C749.849 26.144 749.369 26.0427 748.943 25.84C748.527 25.6267 748.196 25.3387 747.951 24.976C747.705 24.6133 747.583 24.208 747.583 23.76C747.583 23.184 747.727 22.7307 748.015 22.4C748.313 22.0693 748.799 21.8347 749.471 21.696C750.153 21.5573 751.081 21.488 752.255 21.488H752.975V22.336H752.271C751.407 22.336 750.724 22.3787 750.223 22.464C749.732 22.5387 749.385 22.672 749.183 22.864C748.991 23.056 748.895 23.328 748.895 23.68C748.895 24.1173 749.044 24.4747 749.343 24.752C749.652 25.0293 750.068 25.168 750.591 25.168C751.017 25.168 751.391 25.0667 751.711 24.864C752.041 24.6613 752.297 24.384 752.479 24.032C752.671 23.68 752.767 23.2747 752.767 22.816V20.992C752.767 20.3307 752.633 19.856 752.367 19.568C752.1 19.2693 751.663 19.12 751.055 19.12C750.681 19.12 750.308 19.168 749.935 19.264C749.561 19.36 749.167 19.5147 748.751 19.728C748.601 19.8027 748.473 19.8293 748.367 19.808C748.26 19.776 748.175 19.7173 748.111 19.632C748.047 19.5467 748.009 19.4507 747.999 19.344C747.988 19.2267 748.009 19.1147 748.063 19.008C748.127 18.9013 748.223 18.816 748.351 18.752C748.82 18.5173 749.284 18.3467 749.743 18.24C750.201 18.1333 750.639 18.08 751.055 18.08C751.727 18.08 752.281 18.192 752.719 18.416C753.156 18.6293 753.481 18.96 753.695 19.408C753.908 19.8453 754.015 20.4107 754.015 21.104V25.44C754.015 25.6533 753.961 25.8187 753.855 25.936C753.759 26.0533 753.615 26.112 753.423 26.112C753.22 26.112 753.065 26.0533 752.959 25.936C752.852 25.8187 752.799 25.6533 752.799 25.44V24.192H752.943C752.857 24.5973 752.692 24.944 752.447 25.232C752.212 25.52 751.919 25.744 751.567 25.904C751.215 26.064 750.82 26.144 750.383 26.144ZM759.379 26.144C758.686 26.144 758.078 25.9787 757.555 25.648C757.043 25.3173 756.643 24.8533 756.355 24.256C756.078 23.648 755.939 22.9333 755.939 22.112C755.939 21.28 756.078 20.5653 756.355 19.968C756.643 19.36 757.043 18.896 757.555 18.576C758.078 18.2453 758.686 18.08 759.379 18.08C760.083 18.08 760.686 18.256 761.187 18.608C761.688 18.96 762.024 19.4347 762.195 20.032H762.019V15.264C762.019 15.0507 762.072 14.8907 762.179 14.784C762.296 14.6667 762.462 14.608 762.675 14.608C762.878 14.608 763.032 14.6667 763.139 14.784C763.256 14.8907 763.315 15.0507 763.315 15.264V25.44C763.315 25.6533 763.262 25.8187 763.155 25.936C763.048 26.0533 762.888 26.112 762.675 26.112C762.472 26.112 762.312 26.0533 762.195 25.936C762.088 25.8187 762.035 25.6533 762.035 25.44V23.92L762.211 24.144C762.04 24.752 761.699 25.2373 761.187 25.6C760.686 25.9627 760.083 26.144 759.379 26.144ZM759.651 25.104C760.131 25.104 760.552 24.9867 760.915 24.752C761.278 24.5173 761.555 24.176 761.747 23.728C761.95 23.28 762.051 22.7413 762.051 22.112C762.051 21.1413 761.832 20.4 761.395 19.888C760.968 19.376 760.387 19.12 759.651 19.12C759.16 19.12 758.734 19.2373 758.371 19.472C758.019 19.696 757.742 20.032 757.539 20.48C757.347 20.9173 757.251 21.4613 757.251 22.112C757.251 23.072 757.47 23.8133 757.907 24.336C758.344 24.848 758.926 25.104 759.651 25.104ZM772.992 26.144C772.384 26.144 771.872 26.0373 771.456 25.824C771.051 25.6 770.747 25.28 770.544 24.864C770.342 24.4373 770.24 23.92 770.24 23.312V19.232H769.168C768.987 19.232 768.848 19.1893 768.752 19.104C768.656 19.008 768.608 18.88 768.608 18.72C768.608 18.56 768.656 18.4373 768.752 18.352C768.848 18.2667 768.987 18.224 769.168 18.224H770.24V16.384C770.24 16.1707 770.299 16.0107 770.416 15.904C770.534 15.7867 770.694 15.728 770.896 15.728C771.099 15.728 771.254 15.7867 771.36 15.904C771.478 16.0107 771.536 16.1707 771.536 16.384V18.224H773.552C773.734 18.224 773.872 18.2667 773.968 18.352C774.064 18.4373 774.112 18.56 774.112 18.72C774.112 18.88 774.064 19.008 773.968 19.104C773.872 19.1893 773.734 19.232 773.552 19.232H771.536V23.184C771.536 23.792 771.664 24.256 771.92 24.576C772.176 24.8853 772.592 25.04 773.168 25.04C773.371 25.04 773.542 25.0187 773.68 24.976C773.83 24.9333 773.952 24.912 774.048 24.912C774.144 24.9013 774.224 24.9333 774.288 25.008C774.352 25.0827 774.384 25.2107 774.384 25.392C774.384 25.52 774.358 25.6373 774.304 25.744C774.262 25.8507 774.182 25.9253 774.064 25.968C773.936 26.0107 773.766 26.048 773.552 26.08C773.35 26.1227 773.163 26.144 772.992 26.144ZM776.2 26.112C775.986 26.112 775.826 26.0533 775.72 25.936C775.613 25.8187 775.56 25.6533 775.56 25.44V15.264C775.56 15.0507 775.613 14.8907 775.72 14.784C775.826 14.6667 775.986 14.608 776.2 14.608C776.402 14.608 776.562 14.6667 776.68 14.784C776.797 14.8907 776.856 15.0507 776.856 15.264V19.952H776.648C776.872 19.3333 777.234 18.8693 777.736 18.56C778.248 18.24 778.834 18.08 779.496 18.08C780.114 18.08 780.626 18.192 781.032 18.416C781.448 18.64 781.757 18.9813 781.96 19.44C782.162 19.888 782.264 20.4587 782.264 21.152V25.44C782.264 25.6533 782.205 25.8187 782.088 25.936C781.981 26.0533 781.826 26.112 781.624 26.112C781.41 26.112 781.245 26.0533 781.128 25.936C781.021 25.8187 780.968 25.6533 780.968 25.44V21.232C780.968 20.5067 780.824 19.9787 780.536 19.648C780.258 19.3067 779.81 19.136 779.192 19.136C778.477 19.136 777.906 19.36 777.48 19.808C777.064 20.2453 776.856 20.832 776.856 21.568V25.44C776.856 25.888 776.637 26.112 776.2 26.112ZM788.158 26.144C787.336 26.144 786.627 25.984 786.03 25.664C785.443 25.3333 784.984 24.8693 784.654 24.272C784.334 23.6747 784.174 22.96 784.174 22.128C784.174 21.3173 784.334 20.6133 784.654 20.016C784.974 19.408 785.411 18.9333 785.966 18.592C786.531 18.2507 787.182 18.08 787.918 18.08C788.44 18.08 788.91 18.1707 789.326 18.352C789.742 18.5227 790.094 18.7733 790.382 19.104C790.68 19.4347 790.904 19.8347 791.054 20.304C791.214 20.7733 791.294 21.3013 791.294 21.888C791.294 22.0587 791.246 22.1867 791.15 22.272C791.054 22.3467 790.915 22.384 790.734 22.384H785.166V21.536H790.43L790.174 21.744C790.174 21.168 790.088 20.6827 789.918 20.288C789.747 19.8827 789.496 19.5733 789.166 19.36C788.846 19.1467 788.44 19.04 787.95 19.04C787.406 19.04 786.942 19.168 786.558 19.424C786.184 19.6693 785.902 20.016 785.71 20.464C785.518 20.9013 785.422 21.4133 785.422 22V22.096C785.422 23.0773 785.656 23.824 786.126 24.336C786.606 24.848 787.283 25.104 788.158 25.104C788.52 25.104 788.878 25.056 789.23 24.96C789.592 24.864 789.944 24.704 790.286 24.48C790.435 24.384 790.568 24.3413 790.686 24.352C790.814 24.352 790.915 24.3893 790.99 24.464C791.064 24.528 791.112 24.6133 791.134 24.72C791.166 24.816 791.155 24.9227 791.102 25.04C791.059 25.1573 790.968 25.2587 790.83 25.344C790.478 25.6 790.062 25.7973 789.582 25.936C789.102 26.0747 788.627 26.144 788.158 26.144ZM801.118 26.144C800.617 26.144 800.126 26.1013 799.646 26.016C799.166 25.9307 798.718 25.808 798.302 25.648C797.897 25.488 797.529 25.2853 797.198 25.04C797.07 24.944 796.979 24.8373 796.926 24.72C796.883 24.592 796.873 24.4693 796.894 24.352C796.926 24.224 796.979 24.1173 797.054 24.032C797.139 23.9467 797.241 23.8987 797.358 23.888C797.475 23.8773 797.603 23.9147 797.742 24C798.222 24.3413 798.734 24.592 799.278 24.752C799.822 24.9013 800.435 24.976 801.118 24.976C802.078 24.976 802.787 24.8 803.246 24.448C803.715 24.0853 803.95 23.6107 803.95 23.024C803.95 22.544 803.779 22.1707 803.438 21.904C803.107 21.6267 802.547 21.408 801.758 21.248L800.094 20.912C799.091 20.6987 798.339 20.352 797.838 19.872C797.347 19.3813 797.102 18.7307 797.102 17.92C797.102 17.4187 797.203 16.9653 797.406 16.56C797.609 16.144 797.891 15.792 798.254 15.504C798.617 15.2053 799.049 14.976 799.55 14.816C800.051 14.656 800.606 14.576 801.214 14.576C801.886 14.576 802.51 14.672 803.086 14.864C803.673 15.0453 804.201 15.3227 804.67 15.696C804.787 15.792 804.867 15.904 804.91 16.032C804.953 16.1493 804.958 16.2667 804.926 16.384C804.894 16.4907 804.835 16.5813 804.75 16.656C804.675 16.7307 804.574 16.7733 804.446 16.784C804.329 16.7947 804.195 16.752 804.046 16.656C803.619 16.336 803.177 16.1067 802.718 15.968C802.259 15.8187 801.753 15.744 801.198 15.744C800.633 15.744 800.142 15.8293 799.726 16C799.321 16.1707 799.001 16.4213 798.766 16.752C798.542 17.072 798.43 17.4453 798.43 17.872C798.43 18.384 798.585 18.7893 798.894 19.088C799.214 19.3867 799.731 19.6053 800.446 19.744L802.11 20.096C803.187 20.32 803.982 20.6613 804.494 21.12C805.017 21.568 805.278 22.1813 805.278 22.96C805.278 23.4293 805.182 23.8613 804.99 24.256C804.798 24.6507 804.521 24.992 804.158 25.28C803.795 25.5573 803.358 25.7707 802.846 25.92C802.334 26.0693 801.758 26.144 801.118 26.144ZM810.227 26.144C809.619 26.144 809.107 26.0373 808.691 25.824C808.285 25.6 807.981 25.28 807.779 24.864C807.576 24.4373 807.475 23.92 807.475 23.312V19.232H806.403C806.221 19.232 806.083 19.1893 805.987 19.104C805.891 19.008 805.843 18.88 805.843 18.72C805.843 18.56 805.891 18.4373 805.987 18.352C806.083 18.2667 806.221 18.224 806.403 18.224H807.475V16.384C807.475 16.1707 807.533 16.0107 807.651 15.904C807.768 15.7867 807.928 15.728 808.131 15.728C808.333 15.728 808.488 15.7867 808.595 15.904C808.712 16.0107 808.771 16.1707 808.771 16.384V18.224H810.787C810.968 18.224 811.107 18.2667 811.203 18.352C811.299 18.4373 811.347 18.56 811.347 18.72C811.347 18.88 811.299 19.008 811.203 19.104C811.107 19.1893 810.968 19.232 810.787 19.232H808.771V23.184C808.771 23.792 808.899 24.256 809.155 24.576C809.411 24.8853 809.827 25.04 810.403 25.04C810.605 25.04 810.776 25.0187 810.915 24.976C811.064 24.9333 811.187 24.912 811.283 24.912C811.379 24.9013 811.459 24.9333 811.523 25.008C811.587 25.0827 811.619 25.2107 811.619 25.392C811.619 25.52 811.592 25.6373 811.539 25.744C811.496 25.8507 811.416 25.9253 811.299 25.968C811.171 26.0107 811 26.048 810.787 26.08C810.584 26.1227 810.397 26.144 810.227 26.144ZM815.148 26.144C814.615 26.144 814.135 26.0427 813.708 25.84C813.292 25.6267 812.962 25.3387 812.716 24.976C812.471 24.6133 812.348 24.208 812.348 23.76C812.348 23.184 812.492 22.7307 812.78 22.4C813.079 22.0693 813.564 21.8347 814.236 21.696C814.919 21.5573 815.847 21.488 817.02 21.488H817.74V22.336H817.036C816.172 22.336 815.49 22.3787 814.988 22.464C814.498 22.5387 814.151 22.672 813.948 22.864C813.756 23.056 813.66 23.328 813.66 23.68C813.66 24.1173 813.81 24.4747 814.108 24.752C814.418 25.0293 814.834 25.168 815.356 25.168C815.783 25.168 816.156 25.0667 816.476 24.864C816.807 24.6613 817.063 24.384 817.244 24.032C817.436 23.68 817.532 23.2747 817.532 22.816V20.992C817.532 20.3307 817.399 19.856 817.132 19.568C816.866 19.2693 816.428 19.12 815.82 19.12C815.447 19.12 815.074 19.168 814.7 19.264C814.327 19.36 813.932 19.5147 813.516 19.728C813.367 19.8027 813.239 19.8293 813.132 19.808C813.026 19.776 812.94 19.7173 812.876 19.632C812.812 19.5467 812.775 19.4507 812.764 19.344C812.754 19.2267 812.775 19.1147 812.828 19.008C812.892 18.9013 812.988 18.816 813.116 18.752C813.586 18.5173 814.05 18.3467 814.508 18.24C814.967 18.1333 815.404 18.08 815.82 18.08C816.492 18.08 817.047 18.192 817.484 18.416C817.922 18.6293 818.247 18.96 818.46 19.408C818.674 19.8453 818.78 20.4107 818.78 21.104V25.44C818.78 25.6533 818.727 25.8187 818.62 25.936C818.524 26.0533 818.38 26.112 818.188 26.112C817.986 26.112 817.831 26.0533 817.724 25.936C817.618 25.8187 817.564 25.6533 817.564 25.44V24.192H817.708C817.623 24.5973 817.458 24.944 817.212 25.232C816.978 25.52 816.684 25.744 816.332 25.904C815.98 26.064 815.586 26.144 815.148 26.144ZM824.305 26.144C823.697 26.144 823.185 26.0373 822.769 25.824C822.363 25.6 822.059 25.28 821.857 24.864C821.654 24.4373 821.553 23.92 821.553 23.312V19.232H820.481C820.299 19.232 820.161 19.1893 820.065 19.104C819.969 19.008 819.921 18.88 819.921 18.72C819.921 18.56 819.969 18.4373 820.065 18.352C820.161 18.2667 820.299 18.224 820.481 18.224H821.553V16.384C821.553 16.1707 821.611 16.0107 821.729 15.904C821.846 15.7867 822.006 15.728 822.209 15.728C822.411 15.728 822.566 15.7867 822.673 15.904C822.79 16.0107 822.849 16.1707 822.849 16.384V18.224H824.865C825.046 18.224 825.185 18.2667 825.281 18.352C825.377 18.4373 825.425 18.56 825.425 18.72C825.425 18.88 825.377 19.008 825.281 19.104C825.185 19.1893 825.046 19.232 824.865 19.232H822.849V23.184C822.849 23.792 822.977 24.256 823.233 24.576C823.489 24.8853 823.905 25.04 824.481 25.04C824.683 25.04 824.854 25.0187 824.993 24.976C825.142 24.9333 825.265 24.912 825.361 24.912C825.457 24.9013 825.537 24.9333 825.601 25.008C825.665 25.0827 825.697 25.2107 825.697 25.392C825.697 25.52 825.67 25.6373 825.617 25.744C825.574 25.8507 825.494 25.9253 825.377 25.968C825.249 26.0107 825.078 26.048 824.865 26.08C824.662 26.1227 824.475 26.144 824.305 26.144ZM830.204 26.144C829.383 26.144 828.674 25.984 828.076 25.664C827.49 25.3333 827.031 24.8693 826.7 24.272C826.38 23.6747 826.22 22.96 826.22 22.128C826.22 21.3173 826.38 20.6133 826.7 20.016C827.02 19.408 827.458 18.9333 828.012 18.592C828.578 18.2507 829.228 18.08 829.964 18.08C830.487 18.08 830.956 18.1707 831.372 18.352C831.788 18.5227 832.14 18.7733 832.428 19.104C832.727 19.4347 832.951 19.8347 833.1 20.304C833.26 20.7733 833.34 21.3013 833.34 21.888C833.34 22.0587 833.292 22.1867 833.196 22.272C833.1 22.3467 832.962 22.384 832.78 22.384H827.212V21.536H832.476L832.22 21.744C832.22 21.168 832.135 20.6827 831.964 20.288C831.794 19.8827 831.543 19.5733 831.212 19.36C830.892 19.1467 830.487 19.04 829.996 19.04C829.452 19.04 828.988 19.168 828.604 19.424C828.231 19.6693 827.948 20.016 827.756 20.464C827.564 20.9013 827.468 21.4133 827.468 22V22.096C827.468 23.0773 827.703 23.824 828.172 24.336C828.652 24.848 829.33 25.104 830.204 25.104C830.567 25.104 830.924 25.056 831.276 24.96C831.639 24.864 831.991 24.704 832.332 24.48C832.482 24.384 832.615 24.3413 832.732 24.352C832.86 24.352 832.962 24.3893 833.036 24.464C833.111 24.528 833.159 24.6133 833.18 24.72C833.212 24.816 833.202 24.9227 833.148 25.04C833.106 25.1573 833.015 25.2587 832.876 25.344C832.524 25.6 832.108 25.7973 831.628 25.936C831.148 26.0747 830.674 26.144 830.204 26.144ZM842.573 26.144C841.816 26.144 841.16 25.9787 840.605 25.648C840.05 25.3173 839.618 24.8533 839.309 24.256C839.01 23.648 838.861 22.9333 838.861 22.112C838.861 21.4933 838.946 20.9387 839.117 20.448C839.288 19.9467 839.538 19.52 839.869 19.168C840.2 18.816 840.589 18.5493 841.037 18.368C841.496 18.176 842.008 18.08 842.573 18.08C843.33 18.08 843.986 18.2453 844.541 18.576C845.096 18.9067 845.522 19.376 845.821 19.984C846.13 20.5813 846.285 21.2907 846.285 22.112C846.285 22.7307 846.2 23.2853 846.029 23.776C845.858 24.2667 845.608 24.6933 845.277 25.056C844.946 25.408 844.552 25.68 844.093 25.872C843.645 26.0533 843.138 26.144 842.573 26.144ZM842.573 25.104C843.053 25.104 843.474 24.9867 843.837 24.752C844.2 24.5173 844.477 24.176 844.669 23.728C844.872 23.28 844.973 22.7413 844.973 22.112C844.973 21.1413 844.754 20.4 844.317 19.888C843.89 19.376 843.309 19.12 842.573 19.12C842.082 19.12 841.656 19.2373 841.293 19.472C840.941 19.696 840.664 20.032 840.461 20.48C840.269 20.9173 840.173 21.4613 840.173 22.112C840.173 23.072 840.392 23.8133 840.829 24.336C841.266 24.848 841.848 25.104 842.573 25.104ZM849.21 26.112C849.007 26.112 848.847 26.0533 848.73 25.936C848.623 25.8187 848.57 25.6533 848.57 25.44V19.232H847.546C847.375 19.232 847.236 19.1893 847.13 19.104C847.034 19.008 846.986 18.88 846.986 18.72C846.986 18.56 847.034 18.4373 847.13 18.352C847.236 18.2667 847.375 18.224 847.546 18.224H848.922L848.57 18.56V17.952C848.57 16.9387 848.815 16.1653 849.306 15.632C849.807 15.0987 850.538 14.7893 851.498 14.704L851.962 14.656C852.111 14.6453 852.228 14.672 852.314 14.736C852.41 14.8 852.468 14.88 852.49 14.976C852.522 15.072 852.527 15.1733 852.506 15.28C852.484 15.376 852.436 15.4613 852.362 15.536C852.287 15.6107 852.196 15.6533 852.09 15.664L851.722 15.696C851.071 15.7493 850.596 15.9467 850.298 16.288C850.01 16.6293 849.866 17.1307 849.866 17.792V18.464L849.674 18.224H851.594C851.775 18.224 851.914 18.2667 852.01 18.352C852.106 18.4373 852.154 18.56 852.154 18.72C852.154 18.88 852.106 19.008 852.01 19.104C851.914 19.1893 851.775 19.232 851.594 19.232H849.866V25.44C849.866 25.888 849.647 26.112 849.21 26.112ZM862.663 26.144C861.553 26.144 860.604 25.9093 859.815 25.44C859.025 24.9707 858.417 24.304 857.991 23.44C857.575 22.576 857.367 21.5467 857.367 20.352C857.367 19.456 857.484 18.656 857.719 17.952C857.964 17.2373 858.311 16.6347 858.759 16.144C859.217 15.6427 859.777 15.2587 860.439 14.992C861.1 14.7147 861.841 14.576 862.663 14.576C863.324 14.576 863.953 14.672 864.551 14.864C865.148 15.0453 865.665 15.3173 866.103 15.68C866.241 15.7867 866.332 15.9093 866.375 16.048C866.428 16.176 866.433 16.304 866.391 16.432C866.359 16.5493 866.295 16.6507 866.199 16.736C866.113 16.8107 866.007 16.848 865.879 16.848C865.751 16.848 865.607 16.7947 865.447 16.688C865.063 16.3787 864.641 16.1493 864.183 16C863.724 15.8507 863.228 15.776 862.695 15.776C861.852 15.776 861.137 15.9573 860.551 16.32C859.964 16.672 859.521 17.1893 859.223 17.872C858.924 18.5547 858.775 19.3813 858.775 20.352C858.775 21.3227 858.924 22.1547 859.223 22.848C859.521 23.5307 859.964 24.0533 860.551 24.416C861.137 24.768 861.852 24.944 862.695 24.944C863.217 24.944 863.713 24.8693 864.183 24.72C864.652 24.56 865.084 24.3253 865.479 24.016C865.639 23.9093 865.783 23.8613 865.911 23.872C866.039 23.872 866.145 23.9093 866.231 23.984C866.316 24.0587 866.375 24.1547 866.407 24.272C866.449 24.3893 866.449 24.512 866.407 24.64C866.375 24.768 866.295 24.88 866.167 24.976C865.719 25.36 865.191 25.6533 864.583 25.856C863.985 26.048 863.345 26.144 862.663 26.144ZM869.188 26.112C868.996 26.112 868.847 26.0587 868.74 25.952C868.634 25.8347 868.58 25.6747 868.58 25.472V15.248C868.58 15.0347 868.634 14.8747 868.74 14.768C868.847 14.6613 868.996 14.608 869.188 14.608C869.359 14.608 869.492 14.6453 869.588 14.72C869.695 14.784 869.791 14.896 869.876 15.056L874.26 23.312H873.78L878.148 15.056C878.234 14.896 878.324 14.784 878.42 14.72C878.516 14.6453 878.655 14.608 878.836 14.608C879.018 14.608 879.162 14.6613 879.268 14.768C879.375 14.8747 879.428 15.0347 879.428 15.248V25.472C879.428 25.6747 879.375 25.8347 879.268 25.952C879.172 26.0587 879.023 26.112 878.82 26.112C878.628 26.112 878.479 26.0587 878.372 25.952C878.266 25.8347 878.212 25.6747 878.212 25.472V16.48H878.596L874.596 23.984C874.522 24.1227 874.442 24.224 874.356 24.288C874.282 24.3413 874.17 24.368 874.02 24.368C873.871 24.368 873.754 24.336 873.668 24.272C873.583 24.208 873.508 24.112 873.444 23.984L869.396 16.464H869.78V25.472C869.78 25.6747 869.727 25.8347 869.62 25.952C869.524 26.0587 869.38 26.112 869.188 26.112ZM885.884 26.144C885.382 26.144 884.892 26.1013 884.412 26.016C883.932 25.9307 883.484 25.808 883.068 25.648C882.662 25.488 882.294 25.2853 881.964 25.04C881.836 24.944 881.745 24.8373 881.692 24.72C881.649 24.592 881.638 24.4693 881.66 24.352C881.692 24.224 881.745 24.1173 881.82 24.032C881.905 23.9467 882.006 23.8987 882.124 23.888C882.241 23.8773 882.369 23.9147 882.508 24C882.988 24.3413 883.5 24.592 884.044 24.752C884.588 24.9013 885.201 24.976 885.884 24.976C886.844 24.976 887.553 24.8 888.012 24.448C888.481 24.0853 888.716 23.6107 888.716 23.024C888.716 22.544 888.545 22.1707 888.204 21.904C887.873 21.6267 887.313 21.408 886.524 21.248L884.86 20.912C883.857 20.6987 883.105 20.352 882.604 19.872C882.113 19.3813 881.868 18.7307 881.868 17.92C881.868 17.4187 881.969 16.9653 882.172 16.56C882.374 16.144 882.657 15.792 883.02 15.504C883.382 15.2053 883.814 14.976 884.316 14.816C884.817 14.656 885.372 14.576 885.98 14.576C886.652 14.576 887.276 14.672 887.852 14.864C888.438 15.0453 888.966 15.3227 889.436 15.696C889.553 15.792 889.633 15.904 889.676 16.032C889.718 16.1493 889.724 16.2667 889.692 16.384C889.66 16.4907 889.601 16.5813 889.516 16.656C889.441 16.7307 889.34 16.7733 889.212 16.784C889.094 16.7947 888.961 16.752 888.812 16.656C888.385 16.336 887.942 16.1067 887.484 15.968C887.025 15.8187 886.518 15.744 885.964 15.744C885.398 15.744 884.908 15.8293 884.492 16C884.086 16.1707 883.766 16.4213 883.532 16.752C883.308 17.072 883.196 17.4453 883.196 17.872C883.196 18.384 883.35 18.7893 883.66 19.088C883.98 19.3867 884.497 19.6053 885.212 19.744L886.876 20.096C887.953 20.32 888.748 20.6613 889.26 21.12C889.782 21.568 890.044 22.1813 890.044 22.96C890.044 23.4293 889.948 23.8613 889.756 24.256C889.564 24.6507 889.286 24.992 888.924 25.28C888.561 25.5573 888.124 25.7707 887.612 25.92C887.1 26.0693 886.524 26.144 885.884 26.144ZM900.09 26.112C899.919 26.112 899.78 26.0747 899.674 26C899.578 25.9147 899.519 25.808 899.498 25.68C899.487 25.5413 899.519 25.3867 899.594 25.216L903.994 15.2C904.09 14.9867 904.202 14.8373 904.33 14.752C904.468 14.656 904.618 14.608 904.778 14.608C904.938 14.608 905.082 14.656 905.21 14.752C905.348 14.8373 905.46 14.9867 905.546 15.2L909.962 25.216C910.047 25.3867 910.079 25.5413 910.058 25.68C910.047 25.8187 909.994 25.9253 909.898 26C909.802 26.0747 909.668 26.112 909.498 26.112C909.306 26.112 909.151 26.064 909.034 25.968C908.916 25.8613 908.82 25.712 908.746 25.52L907.562 22.784L908.202 23.12H901.322L901.978 22.784L900.81 25.52C900.714 25.7227 900.612 25.872 900.506 25.968C900.399 26.064 900.26 26.112 900.09 26.112ZM904.762 16.256L902.186 22.32L901.802 22.016H907.722L907.37 22.32L904.794 16.256H904.762ZM912.642 26.112C912.428 26.112 912.263 26.0533 912.146 25.936C912.039 25.808 911.986 25.6373 911.986 25.424V15.392C911.986 15.168 912.044 15.0027 912.162 14.896C912.279 14.7787 912.444 14.72 912.658 14.72H916.45C917.655 14.72 918.583 15.0187 919.234 15.616C919.884 16.2027 920.21 17.0347 920.21 18.112C920.21 19.1787 919.884 20.0107 919.234 20.608C918.583 21.2053 917.655 21.504 916.45 21.504H913.298V25.424C913.298 25.6373 913.244 25.808 913.138 25.936C913.031 26.0533 912.866 26.112 912.642 26.112ZM913.298 20.4H916.29C917.154 20.4 917.804 20.208 918.242 19.824C918.69 19.4293 918.914 18.8587 918.914 18.112C918.914 17.3547 918.69 16.784 918.242 16.4C917.804 16.0053 917.154 15.808 916.29 15.808H913.298V20.4ZM920.73 26.112C920.559 26.112 920.421 26.0747 920.314 26C920.218 25.9147 920.159 25.808 920.138 25.68C920.127 25.5413 920.159 25.3867 920.234 25.216L924.634 15.2C924.73 14.9867 924.842 14.8373 924.97 14.752C925.109 14.656 925.258 14.608 925.418 14.608C925.578 14.608 925.722 14.656 925.85 14.752C925.989 14.8373 926.101 14.9867 926.186 15.2L930.602 25.216C930.687 25.3867 930.719 25.5413 930.698 25.68C930.687 25.8187 930.634 25.9253 930.538 26C930.442 26.0747 930.309 26.112 930.138 26.112C929.946 26.112 929.791 26.064 929.674 25.968C929.557 25.8613 929.461 25.712 929.386 25.52L928.202 22.784L928.842 23.12H921.962L922.618 22.784L921.45 25.52C921.354 25.7227 921.253 25.872 921.146 25.968C921.039 26.064 920.901 26.112 920.73 26.112ZM925.402 16.256L922.826 22.32L922.442 22.016H928.362L928.01 22.32L925.434 16.256H925.402ZM937.319 26.144C936.21 26.144 935.26 25.9093 934.471 25.44C933.682 24.9707 933.074 24.304 932.647 23.44C932.231 22.576 932.023 21.5467 932.023 20.352C932.023 19.456 932.14 18.656 932.375 17.952C932.62 17.2373 932.967 16.6347 933.415 16.144C933.874 15.6427 934.434 15.2587 935.095 14.992C935.756 14.7147 936.498 14.576 937.319 14.576C937.98 14.576 938.61 14.672 939.207 14.864C939.804 15.0453 940.322 15.3173 940.759 15.68C940.898 15.7867 940.988 15.9093 941.031 16.048C941.084 16.176 941.09 16.304 941.047 16.432C941.015 16.5493 940.951 16.6507 940.855 16.736C940.77 16.8107 940.663 16.848 940.535 16.848C940.407 16.848 940.263 16.7947 940.103 16.688C939.719 16.3787 939.298 16.1493 938.839 16C938.38 15.8507 937.884 15.776 937.351 15.776C936.508 15.776 935.794 15.9573 935.207 16.32C934.62 16.672 934.178 17.1893 933.879 17.872C933.58 18.5547 933.431 19.3813 933.431 20.352C933.431 21.3227 933.58 22.1547 933.879 22.848C934.178 23.5307 934.62 24.0533 935.207 24.416C935.794 24.768 936.508 24.944 937.351 24.944C937.874 24.944 938.37 24.8693 938.839 24.72C939.308 24.56 939.74 24.3253 940.135 24.016C940.295 23.9093 940.439 23.8613 940.567 23.872C940.695 23.872 940.802 23.9093 940.887 23.984C940.972 24.0587 941.031 24.1547 941.063 24.272C941.106 24.3893 941.106 24.512 941.063 24.64C941.031 24.768 940.951 24.88 940.823 24.976C940.375 25.36 939.847 25.6533 939.239 25.856C938.642 26.048 938.002 26.144 937.319 26.144ZM947.986 26.112C947.772 26.112 947.607 26.0533 947.49 25.936C947.383 25.808 947.33 25.6373 947.33 25.424V15.392C947.33 15.168 947.388 15.0027 947.506 14.896C947.623 14.7787 947.788 14.72 948.002 14.72H951.794C952.999 14.72 953.927 15.0027 954.578 15.568C955.228 16.1333 955.554 16.9387 955.554 17.984C955.554 18.6453 955.404 19.2213 955.106 19.712C954.818 20.192 954.391 20.56 953.826 20.816C953.26 21.0613 952.583 21.184 951.794 21.184L951.954 20.976H952.274C952.69 20.976 953.052 21.0827 953.362 21.296C953.671 21.5093 953.954 21.8507 954.21 22.32L955.746 25.184C955.831 25.3333 955.868 25.4827 955.858 25.632C955.858 25.7707 955.81 25.888 955.714 25.984C955.618 26.0693 955.479 26.112 955.298 26.112C955.116 26.112 954.967 26.0693 954.85 25.984C954.732 25.8987 954.631 25.776 954.546 25.616L952.802 22.384C952.556 21.9253 952.274 21.6213 951.954 21.472C951.634 21.312 951.212 21.232 950.69 21.232H948.642V25.424C948.642 25.6373 948.588 25.808 948.482 25.936C948.375 26.0533 948.21 26.112 947.986 26.112ZM948.642 20.192H951.602C952.476 20.192 953.138 20.0107 953.586 19.648C954.034 19.2747 954.258 18.72 954.258 17.984C954.258 17.2693 954.034 16.7307 953.586 16.368C953.138 15.9947 952.476 15.808 951.602 15.808H948.642V20.192ZM961.189 26.144C960.367 26.144 959.658 25.984 959.061 25.664C958.474 25.3333 958.015 24.8693 957.685 24.272C957.365 23.6747 957.205 22.96 957.205 22.128C957.205 21.3173 957.365 20.6133 957.685 20.016C958.005 19.408 958.442 18.9333 958.997 18.592C959.562 18.2507 960.213 18.08 960.949 18.08C961.471 18.08 961.941 18.1707 962.357 18.352C962.773 18.5227 963.125 18.7733 963.413 19.104C963.711 19.4347 963.935 19.8347 964.085 20.304C964.245 20.7733 964.325 21.3013 964.325 21.888C964.325 22.0587 964.277 22.1867 964.181 22.272C964.085 22.3467 963.946 22.384 963.765 22.384H958.197V21.536H963.461L963.205 21.744C963.205 21.168 963.119 20.6827 962.949 20.288C962.778 19.8827 962.527 19.5733 962.197 19.36C961.877 19.1467 961.471 19.04 960.981 19.04C960.437 19.04 959.973 19.168 959.589 19.424C959.215 19.6693 958.933 20.016 958.741 20.464C958.549 20.9013 958.453 21.4133 958.453 22V22.096C958.453 23.0773 958.687 23.824 959.157 24.336C959.637 24.848 960.314 25.104 961.189 25.104C961.551 25.104 961.909 25.056 962.261 24.96C962.623 24.864 962.975 24.704 963.317 24.48C963.466 24.384 963.599 24.3413 963.717 24.352C963.845 24.352 963.946 24.3893 964.021 24.464C964.095 24.528 964.143 24.6133 964.165 24.72C964.197 24.816 964.186 24.9227 964.133 25.04C964.09 25.1573 963.999 25.2587 963.861 25.344C963.509 25.6 963.093 25.7973 962.613 25.936C962.133 26.0747 961.658 26.144 961.189 26.144ZM966.84 28.992C966.627 28.992 966.467 28.9333 966.36 28.816C966.254 28.7093 966.2 28.5493 966.2 28.336V18.768C966.2 18.5547 966.254 18.3947 966.36 18.288C966.467 18.1707 966.622 18.112 966.824 18.112C967.038 18.112 967.198 18.1707 967.304 18.288C967.422 18.3947 967.48 18.5547 967.48 18.768V20.288L967.304 20.064C967.475 19.456 967.811 18.976 968.312 18.624C968.824 18.2613 969.432 18.08 970.136 18.08C970.83 18.08 971.432 18.2453 971.944 18.576C972.467 18.896 972.867 19.36 973.144 19.968C973.432 20.5653 973.576 21.28 973.576 22.112C973.576 22.9333 973.432 23.648 973.144 24.256C972.867 24.8533 972.472 25.3173 971.96 25.648C971.448 25.9787 970.84 26.144 970.136 26.144C969.432 26.144 968.83 25.968 968.328 25.616C967.827 25.2533 967.486 24.7733 967.304 24.176H967.496V28.336C967.496 28.5493 967.438 28.7093 967.32 28.816C967.203 28.9333 967.043 28.992 966.84 28.992ZM969.864 25.104C970.355 25.104 970.776 24.9867 971.128 24.752C971.491 24.5173 971.768 24.176 971.96 23.728C972.163 23.28 972.264 22.7413 972.264 22.112C972.264 21.1413 972.046 20.4 971.608 19.888C971.182 19.376 970.6 19.12 969.864 19.12C969.384 19.12 968.963 19.2373 968.6 19.472C968.238 19.696 967.955 20.032 967.752 20.48C967.56 20.9173 967.464 21.4613 967.464 22.112C967.464 23.072 967.683 23.8133 968.12 24.336C968.558 24.848 969.139 25.104 969.864 25.104ZM978.761 26.144C978.003 26.144 977.347 25.9787 976.793 25.648C976.238 25.3173 975.806 24.8533 975.497 24.256C975.198 23.648 975.049 22.9333 975.049 22.112C975.049 21.4933 975.134 20.9387 975.305 20.448C975.475 19.9467 975.726 19.52 976.057 19.168C976.387 18.816 976.777 18.5493 977.225 18.368C977.683 18.176 978.195 18.08 978.761 18.08C979.518 18.08 980.174 18.2453 980.729 18.576C981.283 18.9067 981.71 19.376 982.009 19.984C982.318 20.5813 982.473 21.2907 982.473 22.112C982.473 22.7307 982.387 23.2853 982.217 23.776C982.046 24.2667 981.795 24.6933 981.465 25.056C981.134 25.408 980.739 25.68 980.281 25.872C979.833 26.0533 979.326 26.144 978.761 26.144ZM978.761 25.104C979.241 25.104 979.662 24.9867 980.025 24.752C980.387 24.5173 980.665 24.176 980.857 23.728C981.059 23.28 981.161 22.7413 981.161 22.112C981.161 21.1413 980.942 20.4 980.505 19.888C980.078 19.376 979.497 19.12 978.761 19.12C978.27 19.12 977.843 19.2373 977.481 19.472C977.129 19.696 976.851 20.032 976.649 20.48C976.457 20.9173 976.361 21.4613 976.361 22.112C976.361 23.072 976.579 23.8133 977.017 24.336C977.454 24.848 978.035 25.104 978.761 25.104ZM985.075 26.112C984.862 26.112 984.696 26.0533 984.579 25.936C984.472 25.8187 984.419 25.6533 984.419 25.44V18.768C984.419 18.5547 984.472 18.3947 984.579 18.288C984.686 18.1707 984.84 18.112 985.043 18.112C985.246 18.112 985.4 18.1707 985.507 18.288C985.624 18.3947 985.683 18.5547 985.683 18.768V20.064H985.523C985.694 19.4347 986.019 18.9493 986.499 18.608C986.979 18.2667 987.571 18.0853 988.275 18.064C988.435 18.0533 988.563 18.0907 988.659 18.176C988.755 18.2507 988.808 18.384 988.819 18.576C988.83 18.7573 988.787 18.9013 988.691 19.008C988.595 19.1147 988.446 19.1787 988.243 19.2L987.987 19.232C987.262 19.296 986.702 19.5307 986.307 19.936C985.923 20.3307 985.731 20.8747 985.731 21.568V25.44C985.731 25.6533 985.672 25.8187 985.555 25.936C985.448 26.0533 985.288 26.112 985.075 26.112ZM993.695 26.144C993.087 26.144 992.575 26.0373 992.159 25.824C991.754 25.6 991.45 25.28 991.247 24.864C991.045 24.4373 990.943 23.92 990.943 23.312V19.232H989.871C989.69 19.232 989.551 19.1893 989.455 19.104C989.359 19.008 989.311 18.88 989.311 18.72C989.311 18.56 989.359 18.4373 989.455 18.352C989.551 18.2667 989.69 18.224 989.871 18.224H990.943V16.384C990.943 16.1707 991.002 16.0107 991.119 15.904C991.237 15.7867 991.397 15.728 991.599 15.728C991.802 15.728 991.957 15.7867 992.063 15.904C992.181 16.0107 992.239 16.1707 992.239 16.384V18.224H994.255C994.437 18.224 994.575 18.2667 994.671 18.352C994.767 18.4373 994.815 18.56 994.815 18.72C994.815 18.88 994.767 19.008 994.671 19.104C994.575 19.1893 994.437 19.232 994.255 19.232H992.239V23.184C992.239 23.792 992.367 24.256 992.623 24.576C992.879 24.8853 993.295 25.04 993.871 25.04C994.074 25.04 994.245 25.0187 994.383 24.976C994.533 24.9333 994.655 24.912 994.751 24.912C994.847 24.9013 994.927 24.9333 994.991 25.008C995.055 25.0827 995.087 25.2107 995.087 25.392C995.087 25.52 995.061 25.6373 995.007 25.744C994.965 25.8507 994.885 25.9253 994.767 25.968C994.639 26.0107 994.469 26.048 994.255 26.08C994.053 26.1227 993.866 26.144 993.695 26.144Z" fill="white"/>
</g>
</svg>
