<svg width="1440" height="310" viewBox="0 0 1440 310" fill="none" xmlns="http://www.w3.org/2000/svg">
<rect width="1440" height="310" fill="white"/>
<line y1="102.5" x2="460" y2="102.5" stroke="#1954ED"/>
<path d="M587.012 186.256C586.351 186.256 585.839 186.075 585.476 185.712C585.135 185.328 584.964 184.805 584.964 184.144V165.296C584.964 164.613 585.135 164.091 585.476 163.728C585.839 163.365 586.351 163.184 587.012 163.184C587.673 163.184 588.175 163.365 588.516 163.728C588.879 164.091 589.06 164.613 589.06 165.296V184.144C589.06 184.805 588.889 185.328 588.548 185.712C588.207 186.075 587.695 186.256 587.012 186.256ZM595.595 186.256C594.955 186.256 594.465 186.085 594.123 185.744C593.782 185.381 593.611 184.869 593.611 184.208V172.112C593.611 171.451 593.782 170.949 594.123 170.608C594.465 170.267 594.945 170.096 595.563 170.096C596.182 170.096 596.662 170.267 597.003 170.608C597.345 170.949 597.515 171.451 597.515 172.112V174.288L597.163 173.488C597.633 172.357 598.358 171.504 599.339 170.928C600.342 170.331 601.473 170.032 602.731 170.032C603.99 170.032 605.025 170.267 605.835 170.736C606.646 171.205 607.254 171.92 607.659 172.88C608.065 173.819 608.267 175.013 608.267 176.464V184.208C608.267 184.869 608.097 185.381 607.755 185.744C607.414 186.085 606.923 186.256 606.283 186.256C605.643 186.256 605.142 186.085 604.779 185.744C604.438 185.381 604.267 184.869 604.267 184.208V176.656C604.267 175.44 604.033 174.555 603.563 174C603.115 173.445 602.411 173.168 601.451 173.168C600.278 173.168 599.339 173.541 598.635 174.288C597.953 175.013 597.611 175.984 597.611 177.2V184.208C597.611 185.573 596.939 186.256 595.595 186.256ZM619.498 186.32C618.111 186.32 616.949 186.085 616.01 185.616C615.093 185.147 614.41 184.464 613.962 183.568C613.514 182.651 613.29 181.52 613.29 180.176V173.36H611.626C611.114 173.36 610.719 173.232 610.442 172.976C610.165 172.699 610.026 172.325 610.026 171.856C610.026 171.365 610.165 170.992 610.442 170.736C610.719 170.48 611.114 170.352 611.626 170.352H613.29V167.44C613.29 166.779 613.461 166.277 613.802 165.936C614.165 165.595 614.666 165.424 615.306 165.424C615.946 165.424 616.437 165.595 616.778 165.936C617.119 166.277 617.29 166.779 617.29 167.44V170.352H620.682C621.194 170.352 621.589 170.48 621.866 170.736C622.143 170.992 622.282 171.365 622.282 171.856C622.282 172.325 622.143 172.699 621.866 172.976C621.589 173.232 621.194 173.36 620.682 173.36H617.29V179.952C617.29 180.976 617.514 181.744 617.962 182.256C618.41 182.768 619.135 183.024 620.138 183.024C620.501 183.024 620.821 182.992 621.098 182.928C621.375 182.864 621.621 182.821 621.834 182.8C622.09 182.779 622.303 182.864 622.474 183.056C622.645 183.227 622.73 183.589 622.73 184.144C622.73 184.571 622.655 184.955 622.506 185.296C622.378 185.616 622.133 185.84 621.77 185.968C621.493 186.053 621.13 186.128 620.682 186.192C620.234 186.277 619.839 186.32 619.498 186.32ZM632.167 186.32C630.396 186.32 628.871 185.989 627.591 185.328C626.311 184.667 625.319 183.728 624.615 182.512C623.932 181.296 623.591 179.856 623.591 178.192C623.591 176.571 623.922 175.152 624.583 173.936C625.266 172.72 626.194 171.771 627.367 171.088C628.562 170.384 629.916 170.032 631.431 170.032C632.54 170.032 633.532 170.213 634.407 170.576C635.303 170.939 636.06 171.461 636.679 172.144C637.319 172.827 637.799 173.659 638.119 174.64C638.46 175.6 638.631 176.688 638.631 177.904C638.631 178.288 638.492 178.587 638.215 178.8C637.959 178.992 637.586 179.088 637.095 179.088H626.823V176.784H635.815L635.303 177.264C635.303 176.283 635.154 175.461 634.855 174.8C634.578 174.139 634.162 173.637 633.607 173.296C633.074 172.933 632.402 172.752 631.591 172.752C630.695 172.752 629.927 172.965 629.287 173.392C628.668 173.797 628.188 174.384 627.847 175.152C627.527 175.899 627.367 176.795 627.367 177.84V178.064C627.367 179.813 627.772 181.125 628.583 182C629.415 182.853 630.631 183.28 632.231 183.28C632.786 183.28 633.404 183.216 634.087 183.088C634.791 182.939 635.452 182.693 636.071 182.352C636.519 182.096 636.914 181.989 637.255 182.032C637.596 182.053 637.863 182.171 638.055 182.384C638.268 182.597 638.396 182.864 638.439 183.184C638.482 183.483 638.418 183.792 638.247 184.112C638.098 184.432 637.831 184.709 637.447 184.944C636.7 185.413 635.836 185.765 634.855 186C633.895 186.213 632.999 186.32 632.167 186.32ZM649.095 192.08C647.943 192.08 646.823 191.973 645.735 191.76C644.668 191.547 643.697 191.216 642.823 190.768C642.417 190.555 642.14 190.299 641.991 190C641.863 189.701 641.82 189.392 641.863 189.072C641.927 188.773 642.055 188.507 642.247 188.272C642.46 188.037 642.716 187.877 643.015 187.792C643.313 187.707 643.623 187.749 643.943 187.92C644.881 188.389 645.767 188.688 646.599 188.816C647.452 188.965 648.177 189.04 648.775 189.04C650.204 189.04 651.271 188.688 651.975 187.984C652.7 187.301 653.063 186.277 653.063 184.912V182.032H653.351C653.031 183.12 652.359 183.995 651.335 184.656C650.332 185.296 649.191 185.616 647.911 185.616C646.503 185.616 645.276 185.296 644.231 184.656C643.185 183.995 642.375 183.077 641.799 181.904C641.223 180.731 640.935 179.365 640.935 177.808C640.935 176.635 641.095 175.579 641.415 174.64C641.756 173.68 642.225 172.859 642.823 172.176C643.441 171.493 644.177 170.971 645.031 170.608C645.905 170.224 646.865 170.032 647.911 170.032C649.233 170.032 650.385 170.363 651.367 171.024C652.369 171.664 653.02 172.517 653.319 173.584L652.999 174.384V172.112C652.999 171.451 653.169 170.949 653.511 170.608C653.873 170.267 654.364 170.096 654.983 170.096C655.623 170.096 656.113 170.267 656.455 170.608C656.796 170.949 656.967 171.451 656.967 172.112V184.432C656.967 186.971 656.295 188.88 654.951 190.16C653.607 191.44 651.655 192.08 649.095 192.08ZM648.999 182.576C649.831 182.576 650.545 182.384 651.143 182C651.74 181.616 652.199 181.072 652.519 180.368C652.86 179.643 653.031 178.789 653.031 177.808C653.031 176.336 652.668 175.184 651.943 174.352C651.217 173.499 650.236 173.072 648.999 173.072C648.167 173.072 647.452 173.264 646.855 173.648C646.257 174.032 645.788 174.576 645.447 175.28C645.127 175.984 644.967 176.827 644.967 177.808C644.967 179.28 645.329 180.443 646.055 181.296C646.78 182.149 647.761 182.576 648.999 182.576ZM663.159 186.256C662.498 186.256 661.986 186.085 661.623 185.744C661.282 185.381 661.111 184.869 661.111 184.208V172.112C661.111 171.451 661.282 170.949 661.623 170.608C661.965 170.267 662.445 170.096 663.063 170.096C663.682 170.096 664.162 170.267 664.503 170.608C664.845 170.949 665.015 171.451 665.015 172.112V174.128H664.695C664.994 172.848 665.581 171.877 666.455 171.216C667.33 170.555 668.493 170.16 669.943 170.032C670.391 169.989 670.743 170.107 670.999 170.384C671.277 170.64 671.437 171.045 671.479 171.6C671.522 172.133 671.394 172.571 671.095 172.912C670.818 173.232 670.391 173.424 669.815 173.488L669.111 173.552C667.81 173.68 666.829 174.085 666.167 174.768C665.506 175.429 665.175 176.368 665.175 177.584V184.208C665.175 184.869 665.005 185.381 664.663 185.744C664.322 186.085 663.821 186.256 663.159 186.256ZM678.638 186.32C677.508 186.32 676.494 186.107 675.598 185.68C674.724 185.232 674.03 184.635 673.518 183.888C673.028 183.141 672.782 182.299 672.782 181.36C672.782 180.208 673.081 179.301 673.678 178.64C674.276 177.957 675.246 177.467 676.59 177.168C677.934 176.869 679.737 176.72 681.998 176.72H683.598V179.024H682.03C680.708 179.024 679.652 179.088 678.862 179.216C678.073 179.344 677.508 179.568 677.166 179.888C676.846 180.187 676.686 180.613 676.686 181.168C676.686 181.872 676.932 182.448 677.422 182.896C677.913 183.344 678.596 183.568 679.47 183.568C680.174 183.568 680.793 183.408 681.326 183.088C681.881 182.747 682.318 182.288 682.638 181.712C682.958 181.136 683.118 180.475 683.118 179.728V176.048C683.118 174.981 682.884 174.213 682.414 173.744C681.945 173.275 681.156 173.04 680.046 173.04C679.428 173.04 678.756 173.115 678.03 173.264C677.326 173.413 676.58 173.669 675.79 174.032C675.385 174.224 675.022 174.277 674.702 174.192C674.404 174.107 674.169 173.936 673.998 173.68C673.828 173.403 673.742 173.104 673.742 172.784C673.742 172.464 673.828 172.155 673.998 171.856C674.169 171.536 674.457 171.301 674.862 171.152C675.844 170.747 676.782 170.459 677.678 170.288C678.596 170.117 679.428 170.032 680.174 170.032C681.71 170.032 682.969 170.267 683.95 170.736C684.953 171.205 685.7 171.92 686.19 172.88C686.681 173.819 686.926 175.035 686.926 176.528V184.208C686.926 184.869 686.766 185.381 686.446 185.744C686.126 186.085 685.668 186.256 685.07 186.256C684.473 186.256 684.004 186.085 683.662 185.744C683.342 185.381 683.182 184.869 683.182 184.208V182.672H683.438C683.289 183.419 682.99 184.069 682.542 184.624C682.116 185.157 681.572 185.573 680.91 185.872C680.249 186.171 679.492 186.32 678.638 186.32ZM696.33 186.32C694.56 186.32 693.226 185.819 692.33 184.816C691.434 183.792 690.986 182.299 690.986 180.336V165.2C690.986 164.539 691.157 164.037 691.498 163.696C691.84 163.355 692.33 163.184 692.97 163.184C693.61 163.184 694.101 163.355 694.442 163.696C694.805 164.037 694.986 164.539 694.986 165.2V180.144C694.986 181.125 695.189 181.851 695.594 182.32C696.021 182.789 696.618 183.024 697.386 183.024C697.557 183.024 697.717 183.024 697.866 183.024C698.016 183.003 698.165 182.981 698.314 182.96C698.613 182.917 698.816 183.003 698.922 183.216C699.029 183.408 699.082 183.813 699.082 184.432C699.082 184.965 698.976 185.381 698.762 185.68C698.549 185.979 698.197 186.16 697.706 186.224C697.493 186.245 697.269 186.267 697.034 186.288C696.8 186.309 696.565 186.32 696.33 186.32ZM718.053 186.32C717.114 186.32 716.175 186.245 715.237 186.096C714.298 185.968 713.413 185.765 712.581 185.488C711.749 185.189 711.002 184.827 710.341 184.4C709.957 184.144 709.69 183.835 709.541 183.472C709.391 183.109 709.338 182.757 709.381 182.416C709.445 182.053 709.583 181.744 709.797 181.488C710.031 181.211 710.319 181.04 710.661 180.976C711.002 180.912 711.375 181.008 711.781 181.264C712.719 181.819 713.711 182.224 714.757 182.48C715.802 182.736 716.901 182.864 718.053 182.864C719.738 182.864 720.965 182.587 721.733 182.032C722.501 181.456 722.885 180.72 722.885 179.824C722.885 179.077 722.607 178.491 722.053 178.064C721.519 177.637 720.591 177.285 719.269 177.008L715.749 176.272C713.722 175.845 712.207 175.131 711.205 174.128C710.223 173.104 709.733 171.76 709.733 170.096C709.733 169.051 709.946 168.101 710.373 167.248C710.799 166.395 711.397 165.659 712.165 165.04C712.954 164.421 713.882 163.952 714.949 163.632C716.037 163.291 717.231 163.12 718.533 163.12C719.813 163.12 721.029 163.28 722.181 163.6C723.333 163.92 724.367 164.389 725.285 165.008C725.626 165.243 725.85 165.531 725.957 165.872C726.085 166.213 726.117 166.555 726.053 166.896C725.989 167.216 725.839 167.493 725.605 167.728C725.37 167.963 725.071 168.101 724.708 168.144C724.367 168.187 723.973 168.08 723.525 167.824C722.735 167.376 721.935 167.056 721.125 166.864C720.314 166.672 719.439 166.576 718.501 166.576C717.519 166.576 716.677 166.715 715.973 166.992C715.269 167.269 714.725 167.664 714.341 168.176C713.978 168.667 713.797 169.253 713.797 169.936C713.797 170.704 714.053 171.323 714.565 171.792C715.077 172.24 715.951 172.592 717.189 172.848L720.677 173.584C722.789 174.032 724.357 174.736 725.381 175.696C726.426 176.656 726.949 177.936 726.949 179.536C726.949 180.56 726.735 181.488 726.309 182.32C725.903 183.152 725.306 183.867 724.517 184.464C723.749 185.061 722.821 185.52 721.733 185.84C720.645 186.16 719.418 186.32 718.053 186.32ZM737.216 186.32C735.595 186.32 734.187 185.989 732.992 185.328C731.797 184.667 730.869 183.728 730.208 182.512C729.547 181.275 729.216 179.824 729.216 178.16C729.216 176.901 729.397 175.781 729.76 174.8C730.144 173.797 730.688 172.944 731.392 172.24C732.096 171.515 732.939 170.971 733.92 170.608C734.901 170.224 736 170.032 737.216 170.032C738.837 170.032 740.245 170.363 741.44 171.024C742.635 171.685 743.563 172.624 744.224 173.84C744.885 175.056 745.216 176.496 745.216 178.16C745.216 179.419 745.024 180.549 744.64 181.552C744.277 182.555 743.744 183.419 743.04 184.144C742.336 184.848 741.493 185.392 740.512 185.776C739.531 186.139 738.432 186.32 737.216 186.32ZM737.216 183.28C738.005 183.28 738.699 183.088 739.296 182.704C739.893 182.32 740.352 181.755 740.672 181.008C741.013 180.24 741.184 179.291 741.184 178.16C741.184 176.453 740.821 175.184 740.096 174.352C739.371 173.499 738.411 173.072 737.216 173.072C736.427 173.072 735.733 173.264 735.136 173.648C734.539 174.011 734.069 174.576 733.728 175.344C733.408 176.091 733.248 177.029 733.248 178.16C733.248 179.845 733.611 181.125 734.336 182C735.061 182.853 736.021 183.28 737.216 183.28ZM753.862 186.32C752.091 186.32 750.758 185.819 749.862 184.816C748.966 183.792 748.518 182.299 748.518 180.336V165.2C748.518 164.539 748.688 164.037 749.03 163.696C749.371 163.355 749.862 163.184 750.502 163.184C751.142 163.184 751.632 163.355 751.974 163.696C752.336 164.037 752.518 164.539 752.518 165.2V180.144C752.518 181.125 752.72 181.851 753.126 182.32C753.552 182.789 754.15 183.024 754.918 183.024C755.088 183.024 755.248 183.024 755.398 183.024C755.547 183.003 755.696 182.981 755.845 182.96C756.144 182.917 756.347 183.003 756.454 183.216C756.56 183.408 756.614 183.813 756.614 184.432C756.614 184.965 756.507 185.381 756.294 185.68C756.08 185.979 755.728 186.16 755.238 186.224C755.024 186.245 754.8 186.267 754.566 186.288C754.331 186.309 754.096 186.32 753.862 186.32ZM764.4 186.32C763.099 186.32 762.022 186.085 761.168 185.616C760.315 185.125 759.675 184.4 759.248 183.44C758.843 182.48 758.64 181.285 758.64 179.856V172.112C758.64 171.429 758.811 170.928 759.152 170.608C759.494 170.267 759.984 170.096 760.624 170.096C761.264 170.096 761.755 170.267 762.096 170.608C762.459 170.928 762.64 171.429 762.64 172.112V179.92C762.64 181.029 762.864 181.851 763.312 182.384C763.76 182.917 764.475 183.184 765.456 183.184C766.523 183.184 767.398 182.821 768.08 182.096C768.763 181.349 769.104 180.368 769.104 179.152V172.112C769.104 171.429 769.275 170.928 769.616 170.608C769.958 170.267 770.448 170.096 771.088 170.096C771.728 170.096 772.219 170.267 772.56 170.608C772.923 170.928 773.104 171.429 773.104 172.112V184.208C773.104 185.573 772.454 186.256 771.152 186.256C770.534 186.256 770.054 186.085 769.712 185.744C769.371 185.381 769.2 184.869 769.2 184.208V181.776L769.648 182.736C769.2 183.888 768.518 184.773 767.6 185.392C766.704 186.011 765.638 186.32 764.4 186.32ZM784.436 186.32C783.049 186.32 781.886 186.085 780.948 185.616C780.03 185.147 779.348 184.464 778.9 183.568C778.452 182.651 778.228 181.52 778.228 180.176V173.36H776.564C776.052 173.36 775.657 173.232 775.38 172.976C775.102 172.699 774.963 172.325 774.963 171.856C774.963 171.365 775.102 170.992 775.38 170.736C775.657 170.48 776.052 170.352 776.564 170.352H778.228V167.44C778.228 166.779 778.398 166.277 778.74 165.936C779.102 165.595 779.604 165.424 780.244 165.424C780.884 165.424 781.374 165.595 781.716 165.936C782.057 166.277 782.228 166.779 782.228 167.44V170.352H785.62C786.132 170.352 786.526 170.48 786.804 170.736C787.081 170.992 787.22 171.365 787.22 171.856C787.22 172.325 787.081 172.699 786.804 172.976C786.526 173.232 786.132 173.36 785.62 173.36H782.228V179.952C782.228 180.976 782.452 181.744 782.9 182.256C783.348 182.768 784.073 183.024 785.076 183.024C785.438 183.024 785.758 182.992 786.036 182.928C786.313 182.864 786.558 182.821 786.772 182.8C787.028 182.779 787.241 182.864 787.412 183.056C787.582 183.227 787.668 183.589 787.668 184.144C787.668 184.571 787.593 184.955 787.444 185.296C787.316 185.616 787.07 185.84 786.708 185.968C786.43 186.053 786.068 186.128 785.62 186.192C785.172 186.277 784.777 186.32 784.436 186.32ZM791.939 186.224C791.299 186.224 790.808 186.032 790.467 185.648C790.126 185.264 789.955 184.731 789.955 184.048V172.304C789.955 171.6 790.126 171.067 790.467 170.704C790.808 170.32 791.299 170.128 791.939 170.128C792.579 170.128 793.07 170.32 793.411 170.704C793.774 171.067 793.955 171.6 793.955 172.304V184.048C793.955 184.731 793.784 185.264 793.443 185.648C793.102 186.032 792.6 186.224 791.939 186.224ZM791.939 167.152C791.192 167.152 790.606 166.971 790.179 166.608C789.774 166.224 789.571 165.701 789.571 165.04C789.571 164.357 789.774 163.835 790.179 163.472C790.606 163.109 791.192 162.928 791.939 162.928C792.707 162.928 793.294 163.109 793.699 163.472C794.104 163.835 794.307 164.357 794.307 165.04C794.307 165.701 794.104 166.224 793.699 166.608C793.294 166.971 792.707 167.152 791.939 167.152ZM805.247 186.32C803.626 186.32 802.218 185.989 801.023 185.328C799.829 184.667 798.901 183.728 798.239 182.512C797.578 181.275 797.247 179.824 797.247 178.16C797.247 176.901 797.429 175.781 797.791 174.8C798.175 173.797 798.719 172.944 799.423 172.24C800.127 171.515 800.97 170.971 801.951 170.608C802.933 170.224 804.031 170.032 805.247 170.032C806.869 170.032 808.277 170.363 809.471 171.024C810.666 171.685 811.594 172.624 812.255 173.84C812.917 175.056 813.247 176.496 813.247 178.16C813.247 179.419 813.055 180.549 812.671 181.552C812.309 182.555 811.775 183.419 811.071 184.144C810.367 184.848 809.525 185.392 808.543 185.776C807.562 186.139 806.463 186.32 805.247 186.32ZM805.247 183.28C806.037 183.28 806.73 183.088 807.327 182.704C807.925 182.32 808.383 181.755 808.703 181.008C809.045 180.24 809.215 179.291 809.215 178.16C809.215 176.453 808.853 175.184 808.127 174.352C807.402 173.499 806.442 173.072 805.247 173.072C804.458 173.072 803.765 173.264 803.167 173.648C802.57 174.011 802.101 174.576 801.759 175.344C801.439 176.091 801.279 177.029 801.279 178.16C801.279 179.845 801.642 181.125 802.367 182C803.093 182.853 804.053 183.28 805.247 183.28ZM818.533 186.256C817.893 186.256 817.402 186.085 817.061 185.744C816.719 185.381 816.549 184.869 816.549 184.208V172.112C816.549 171.451 816.719 170.949 817.061 170.608C817.402 170.267 817.882 170.096 818.501 170.096C819.119 170.096 819.599 170.267 819.941 170.608C820.282 170.949 820.453 171.451 820.453 172.112V174.288L820.101 173.488C820.57 172.357 821.295 171.504 822.277 170.928C823.279 170.331 824.41 170.032 825.669 170.032C826.927 170.032 827.962 170.267 828.773 170.736C829.583 171.205 830.191 171.92 830.597 172.88C831.002 173.819 831.205 175.013 831.205 176.464V184.208C831.205 184.869 831.034 185.381 830.693 185.744C830.351 186.085 829.861 186.256 829.221 186.256C828.581 186.256 828.079 186.085 827.717 185.744C827.375 185.381 827.205 184.869 827.205 184.208V176.656C827.205 175.44 826.97 174.555 826.501 174C826.053 173.445 825.349 173.168 824.389 173.168C823.215 173.168 822.277 173.541 821.573 174.288C820.89 175.013 820.549 175.984 820.549 177.2V184.208C820.549 185.573 819.877 186.256 818.533 186.256ZM840.996 186.32C840.078 186.32 839.108 186.224 838.084 186.032C837.06 185.84 836.142 185.509 835.332 185.04C834.99 184.827 834.745 184.581 834.596 184.304C834.468 184.005 834.414 183.717 834.436 183.44C834.478 183.141 834.585 182.885 834.756 182.672C834.948 182.459 835.182 182.32 835.46 182.256C835.758 182.192 836.078 182.245 836.42 182.416C837.273 182.821 838.073 183.109 838.82 183.28C839.566 183.429 840.302 183.504 841.028 183.504C842.052 183.504 842.809 183.333 843.3 182.992C843.812 182.629 844.068 182.16 844.068 181.584C844.068 181.093 843.897 180.72 843.556 180.464C843.236 180.187 842.745 179.984 842.084 179.856L838.884 179.248C837.561 178.992 836.548 178.512 835.844 177.808C835.161 177.083 834.82 176.155 834.82 175.024C834.82 174 835.097 173.115 835.652 172.368C836.228 171.621 837.017 171.045 838.02 170.64C839.022 170.235 840.174 170.032 841.476 170.032C842.414 170.032 843.289 170.139 844.1 170.352C844.932 170.544 845.732 170.853 846.5 171.28C846.82 171.451 847.033 171.675 847.14 171.952C847.268 172.229 847.3 172.517 847.236 172.816C847.172 173.093 847.044 173.349 846.852 173.584C846.66 173.797 846.414 173.936 846.116 174C845.838 174.043 845.518 173.979 845.156 173.808C844.494 173.467 843.854 173.221 843.236 173.072C842.638 172.923 842.062 172.848 841.508 172.848C840.462 172.848 839.684 173.029 839.172 173.392C838.681 173.755 838.436 174.235 838.436 174.832C838.436 175.28 838.585 175.653 838.884 175.952C839.182 176.251 839.641 176.453 840.26 176.56L843.46 177.168C844.846 177.424 845.892 177.893 846.596 178.576C847.321 179.259 847.684 180.176 847.684 181.328C847.684 182.885 847.076 184.112 845.86 185.008C844.644 185.883 843.022 186.32 840.996 186.32ZM467.014 226.256C466.352 226.256 465.83 226.075 465.446 225.712C465.083 225.328 464.902 224.784 464.902 224.08V205.616C464.902 204.912 465.083 204.379 465.446 204.016C465.83 203.632 466.374 203.44 467.078 203.44H478.246C478.8 203.44 479.216 203.579 479.494 203.856C479.771 204.133 479.91 204.528 479.91 205.04C479.91 205.573 479.771 205.989 479.494 206.288C479.216 206.565 478.8 206.704 478.246 206.704H468.998V213.072H477.574C478.107 213.072 478.512 213.211 478.79 213.488C479.088 213.765 479.238 214.16 479.238 214.672C479.238 215.205 479.088 215.621 478.79 215.92C478.512 216.197 478.107 216.336 477.574 216.336H468.998V224.08C468.998 225.531 468.336 226.256 467.014 226.256ZM489.06 226.32C487.438 226.32 486.03 225.989 484.836 225.328C483.641 224.667 482.713 223.728 482.052 222.512C481.39 221.275 481.06 219.824 481.06 218.16C481.06 216.901 481.241 215.781 481.604 214.8C481.988 213.797 482.532 212.944 483.236 212.24C483.94 211.515 484.782 210.971 485.764 210.608C486.745 210.224 487.844 210.032 489.06 210.032C490.681 210.032 492.089 210.363 493.284 211.024C494.478 211.685 495.406 212.624 496.068 213.84C496.729 215.056 497.06 216.496 497.06 218.16C497.06 219.419 496.868 220.549 496.484 221.552C496.121 222.555 495.588 223.419 494.884 224.144C494.18 224.848 493.337 225.392 492.356 225.776C491.374 226.139 490.276 226.32 489.06 226.32ZM489.06 223.28C489.849 223.28 490.542 223.088 491.14 222.704C491.737 222.32 492.196 221.755 492.516 221.008C492.857 220.24 493.028 219.291 493.028 218.16C493.028 216.453 492.665 215.184 491.94 214.352C491.214 213.499 490.254 213.072 489.06 213.072C488.27 213.072 487.577 213.264 486.98 213.648C486.382 214.011 485.913 214.576 485.572 215.344C485.252 216.091 485.092 217.029 485.092 218.16C485.092 219.845 485.454 221.125 486.18 222C486.905 222.853 487.865 223.28 489.06 223.28ZM502.409 226.256C501.748 226.256 501.236 226.085 500.873 225.744C500.532 225.381 500.361 224.869 500.361 224.208V212.112C500.361 211.451 500.532 210.949 500.873 210.608C501.215 210.267 501.695 210.096 502.313 210.096C502.932 210.096 503.412 210.267 503.753 210.608C504.095 210.949 504.265 211.451 504.265 212.112V214.128H503.945C504.244 212.848 504.831 211.877 505.705 211.216C506.58 210.555 507.743 210.16 509.193 210.032C509.641 209.989 509.993 210.107 510.249 210.384C510.527 210.64 510.687 211.045 510.729 211.6C510.772 212.133 510.644 212.571 510.345 212.912C510.068 213.232 509.641 213.424 509.065 213.488L508.361 213.552C507.06 213.68 506.079 214.085 505.417 214.768C504.756 215.429 504.425 216.368 504.425 217.584V224.208C504.425 224.869 504.255 225.381 503.913 225.744C503.572 226.085 503.071 226.256 502.409 226.256ZM523.884 226.256C523.287 226.256 522.828 226.085 522.508 225.744C522.188 225.403 522.028 224.933 522.028 224.336V205.104C522.028 204.485 522.199 204.016 522.54 203.696C522.881 203.355 523.351 203.184 523.948 203.184C524.481 203.184 524.897 203.291 525.196 203.504C525.516 203.696 525.804 204.037 526.06 204.528L533.964 219.152H532.94L540.844 204.528C541.1 204.037 541.377 203.696 541.676 203.504C541.975 203.291 542.391 203.184 542.924 203.184C543.521 203.184 543.98 203.355 544.3 203.696C544.62 204.016 544.78 204.485 544.78 205.104V224.336C544.78 224.933 544.62 225.403 544.3 225.744C544.001 226.085 543.543 226.256 542.924 226.256C542.327 226.256 541.868 226.085 541.548 225.744C541.228 225.403 541.068 224.933 541.068 224.336V209.52H541.772L535.052 221.776C534.839 222.139 534.615 222.405 534.38 222.576C534.145 222.747 533.825 222.832 533.42 222.832C533.015 222.832 532.684 222.747 532.428 222.576C532.172 222.384 531.948 222.117 531.756 221.776L524.972 209.488H525.74V224.336C525.74 224.933 525.58 225.403 525.26 225.744C524.961 226.085 524.503 226.256 523.884 226.256ZM556.497 226.32C554.876 226.32 553.468 225.989 552.273 225.328C551.079 224.667 550.151 223.728 549.489 222.512C548.828 221.275 548.497 219.824 548.497 218.16C548.497 216.901 548.679 215.781 549.041 214.8C549.425 213.797 549.969 212.944 550.673 212.24C551.377 211.515 552.22 210.971 553.201 210.608C554.183 210.224 555.281 210.032 556.497 210.032C558.119 210.032 559.527 210.363 560.721 211.024C561.916 211.685 562.844 212.624 563.505 213.84C564.167 215.056 564.497 216.496 564.497 218.16C564.497 219.419 564.305 220.549 563.921 221.552C563.559 222.555 563.025 223.419 562.321 224.144C561.617 224.848 560.775 225.392 559.793 225.776C558.812 226.139 557.713 226.32 556.497 226.32ZM556.497 223.28C557.287 223.28 557.98 223.088 558.577 222.704C559.175 222.32 559.633 221.755 559.953 221.008C560.295 220.24 560.465 219.291 560.465 218.16C560.465 216.453 560.103 215.184 559.377 214.352C558.652 213.499 557.692 213.072 556.497 213.072C555.708 213.072 555.015 213.264 554.417 213.648C553.82 214.011 553.351 214.576 553.009 215.344C552.689 216.091 552.529 217.029 552.529 218.16C552.529 219.845 552.892 221.125 553.617 222C554.343 222.853 555.303 223.28 556.497 223.28ZM573.815 226.32C572.449 226.32 571.244 225.989 570.199 225.328C569.175 224.667 568.375 223.728 567.799 222.512C567.223 221.275 566.935 219.824 566.935 218.16C566.935 216.475 567.223 215.035 567.799 213.84C568.375 212.624 569.175 211.685 570.199 211.024C571.244 210.363 572.449 210.032 573.815 210.032C575.116 210.032 576.247 210.352 577.207 210.992C578.188 211.632 578.849 212.475 579.191 213.52H578.839V205.2C578.839 204.539 579.009 204.037 579.351 203.696C579.692 203.355 580.183 203.184 580.823 203.184C581.463 203.184 581.953 203.355 582.295 203.696C582.657 204.037 582.839 204.539 582.839 205.2V224.208C582.839 224.869 582.668 225.381 582.327 225.744C581.985 226.085 581.495 226.256 580.855 226.256C580.215 226.256 579.724 226.085 579.383 225.744C579.041 225.381 578.871 224.869 578.871 224.208V221.712L579.223 222.672C578.903 223.781 578.252 224.667 577.271 225.328C576.289 225.989 575.137 226.32 573.815 226.32ZM574.935 223.28C575.724 223.28 576.417 223.088 577.015 222.704C577.612 222.32 578.071 221.755 578.391 221.008C578.732 220.24 578.903 219.291 578.903 218.16C578.903 216.453 578.54 215.184 577.815 214.352C577.089 213.499 576.129 213.072 574.935 213.072C574.145 213.072 573.452 213.264 572.855 213.648C572.257 214.011 571.788 214.576 571.447 215.344C571.127 216.091 570.967 217.029 570.967 218.16C570.967 219.845 571.329 221.125 572.055 222C572.78 222.853 573.74 223.28 574.935 223.28ZM594.698 226.32C592.928 226.32 591.402 225.989 590.122 225.328C588.842 224.667 587.85 223.728 587.146 222.512C586.464 221.296 586.122 219.856 586.122 218.192C586.122 216.571 586.453 215.152 587.114 213.936C587.797 212.72 588.725 211.771 589.898 211.088C591.093 210.384 592.448 210.032 593.962 210.032C595.072 210.032 596.064 210.213 596.938 210.576C597.834 210.939 598.592 211.461 599.21 212.144C599.85 212.827 600.33 213.659 600.65 214.64C600.992 215.6 601.162 216.688 601.162 217.904C601.162 218.288 601.024 218.587 600.746 218.8C600.49 218.992 600.117 219.088 599.626 219.088H589.354V216.784H598.346L597.834 217.264C597.834 216.283 597.685 215.461 597.386 214.8C597.109 214.139 596.693 213.637 596.138 213.296C595.605 212.933 594.933 212.752 594.122 212.752C593.226 212.752 592.458 212.965 591.818 213.392C591.2 213.797 590.72 214.384 590.378 215.152C590.058 215.899 589.898 216.795 589.898 217.84V218.064C589.898 219.813 590.304 221.125 591.114 222C591.946 222.853 593.162 223.28 594.762 223.28C595.317 223.28 595.936 223.216 596.618 223.088C597.322 222.939 597.984 222.693 598.602 222.352C599.05 222.096 599.445 221.989 599.786 222.032C600.128 222.053 600.394 222.171 600.586 222.384C600.8 222.597 600.928 222.864 600.97 223.184C601.013 223.483 600.949 223.792 600.778 224.112C600.629 224.432 600.362 224.709 599.978 224.944C599.232 225.413 598.368 225.765 597.386 226C596.426 226.213 595.53 226.32 594.698 226.32ZM606.378 226.256C605.717 226.256 605.205 226.085 604.842 225.744C604.501 225.381 604.33 224.869 604.33 224.208V212.112C604.33 211.451 604.501 210.949 604.842 210.608C605.183 210.267 605.663 210.096 606.282 210.096C606.901 210.096 607.381 210.267 607.722 210.608C608.063 210.949 608.234 211.451 608.234 212.112V214.128H607.914C608.213 212.848 608.799 211.877 609.674 211.216C610.549 210.555 611.711 210.16 613.162 210.032C613.61 209.989 613.962 210.107 614.218 210.384C614.495 210.64 614.655 211.045 614.698 211.6C614.741 212.133 614.613 212.571 614.314 212.912C614.037 213.232 613.61 213.424 613.034 213.488L612.33 213.552C611.029 213.68 610.047 214.085 609.386 214.768C608.725 215.429 608.394 216.368 608.394 217.584V224.208C608.394 224.869 608.223 225.381 607.882 225.744C607.541 226.085 607.039 226.256 606.378 226.256ZM618.845 226.256C618.205 226.256 617.715 226.085 617.373 225.744C617.032 225.381 616.861 224.869 616.861 224.208V212.112C616.861 211.451 617.032 210.949 617.373 210.608C617.715 210.267 618.195 210.096 618.813 210.096C619.432 210.096 619.912 210.267 620.253 210.608C620.595 210.949 620.765 211.451 620.765 212.112V214.288L620.413 213.488C620.883 212.357 621.608 211.504 622.589 210.928C623.592 210.331 624.723 210.032 625.981 210.032C627.24 210.032 628.275 210.267 629.085 210.736C629.896 211.205 630.504 211.92 630.909 212.88C631.315 213.819 631.517 215.013 631.517 216.464V224.208C631.517 224.869 631.347 225.381 631.005 225.744C630.664 226.085 630.173 226.256 629.533 226.256C628.893 226.256 628.392 226.085 628.029 225.744C627.688 225.381 627.517 224.869 627.517 224.208V216.656C627.517 215.44 627.283 214.555 626.813 214C626.365 213.445 625.661 213.168 624.701 213.168C623.528 213.168 622.589 213.541 621.885 214.288C621.203 215.013 620.861 215.984 620.861 217.2V224.208C620.861 225.573 620.189 226.256 618.845 226.256ZM655.5 226.32C653.004 226.32 650.892 225.851 649.164 224.912C647.457 223.973 646.156 222.64 645.26 220.912C644.364 219.184 643.916 217.136 643.916 214.768C643.916 212.976 644.172 211.365 644.684 209.936C645.217 208.507 645.974 207.291 646.956 206.288C647.958 205.264 649.174 204.485 650.604 203.952C652.033 203.397 653.654 203.12 655.468 203.12C656.662 203.12 657.857 203.269 659.052 203.568C660.268 203.845 661.409 204.325 662.476 205.008C662.838 205.243 663.073 205.531 663.18 205.872C663.308 206.213 663.329 206.565 663.244 206.928C663.158 207.269 662.998 207.568 662.764 207.824C662.529 208.08 662.23 208.24 661.868 208.304C661.526 208.368 661.142 208.283 660.716 208.048C659.905 207.579 659.084 207.237 658.252 207.024C657.42 206.811 656.492 206.704 655.468 206.704C653.889 206.704 652.556 207.024 651.468 207.664C650.38 208.283 649.558 209.189 649.004 210.384C648.47 211.579 648.204 213.04 648.204 214.768C648.204 217.392 648.833 219.387 650.092 220.752C651.35 222.117 653.217 222.8 655.692 222.8C656.545 222.8 657.409 222.715 658.284 222.544C659.158 222.373 660.012 222.139 660.844 221.84L660.044 223.664V216.848H656.524C655.99 216.848 655.574 216.709 655.276 216.432C654.998 216.155 654.86 215.781 654.86 215.312C654.86 214.821 654.998 214.448 655.276 214.192C655.574 213.936 655.99 213.808 656.524 213.808H661.804C662.337 213.808 662.742 213.957 663.02 214.256C663.318 214.533 663.468 214.939 663.468 215.472V223.248C663.468 223.717 663.372 224.112 663.18 224.432C663.009 224.752 662.721 224.987 662.316 225.136C661.377 225.477 660.3 225.765 659.083 226C657.868 226.213 656.673 226.32 655.5 226.32ZM670.262 226.256C669.601 226.256 669.089 226.075 668.726 225.712C668.385 225.328 668.214 224.805 668.214 224.144V205.52C668.214 204.837 668.395 204.325 668.758 203.984C669.121 203.621 669.633 203.44 670.294 203.44H678.006C680.481 203.44 682.39 204.037 683.734 205.232C685.078 206.405 685.75 208.059 685.75 210.192C685.75 211.579 685.441 212.773 684.822 213.776C684.225 214.779 683.35 215.547 682.198 216.08C681.046 216.613 679.649 216.88 678.006 216.88L678.294 216.4H679.35C680.225 216.4 680.982 216.613 681.622 217.04C682.283 217.467 682.859 218.139 683.35 219.056L685.75 223.504C686.006 223.952 686.123 224.389 686.102 224.816C686.081 225.243 685.921 225.595 685.622 225.872C685.323 226.128 684.886 226.256 684.31 226.256C683.734 226.256 683.265 226.139 682.902 225.904C682.539 225.648 682.219 225.264 681.942 224.752L678.71 218.8C678.326 218.075 677.867 217.595 677.334 217.36C676.822 217.104 676.161 216.976 675.35 216.976H672.31V224.144C672.31 224.805 672.139 225.328 671.798 225.712C671.457 226.075 670.945 226.256 670.262 226.256ZM672.31 213.936H677.302C678.774 213.936 679.883 213.637 680.63 213.04C681.398 212.421 681.782 211.504 681.782 210.288C681.782 209.093 681.398 208.197 680.63 207.6C679.883 206.981 678.774 206.672 677.302 206.672H672.31V213.936ZM700.107 226.32C697.931 226.32 696.022 225.84 694.379 224.88C692.758 223.92 691.499 222.576 690.603 220.848C689.707 219.099 689.259 217.051 689.259 214.704C689.259 212.933 689.515 211.344 690.027 209.936C690.539 208.507 691.265 207.291 692.203 206.288C693.163 205.264 694.305 204.485 695.627 203.952C696.971 203.397 698.465 203.12 700.107 203.12C702.305 203.12 704.214 203.6 705.835 204.56C707.457 205.499 708.715 206.832 709.611 208.56C710.507 210.288 710.955 212.325 710.955 214.672C710.955 216.443 710.699 218.043 710.187 219.472C709.675 220.901 708.939 222.128 707.979 223.152C707.041 224.176 705.899 224.965 704.555 225.52C703.233 226.053 701.75 226.32 700.107 226.32ZM700.107 222.8C701.494 222.8 702.667 222.48 703.627 221.84C704.609 221.2 705.355 220.272 705.867 219.056C706.401 217.84 706.667 216.389 706.667 214.704C706.667 212.144 706.091 210.16 704.939 208.752C703.809 207.344 702.198 206.64 700.107 206.64C698.742 206.64 697.569 206.96 696.587 207.6C695.606 208.219 694.849 209.136 694.315 210.352C693.803 211.547 693.547 212.997 693.547 214.704C693.547 217.243 694.123 219.227 695.275 220.656C696.427 222.085 698.038 222.8 700.107 222.8ZM722.494 226.256C721.918 226.256 721.448 226.117 721.086 225.84C720.744 225.563 720.467 225.125 720.254 224.528L713.566 205.616C713.331 204.933 713.374 204.357 713.694 203.888C714.035 203.419 714.6 203.184 715.39 203.184C715.966 203.184 716.414 203.323 716.734 203.6C717.054 203.856 717.31 204.272 717.502 204.848L723.262 221.936H721.982L727.998 204.88C728.211 204.304 728.478 203.877 728.798 203.6C729.118 203.323 729.534 203.184 730.046 203.184C730.558 203.184 730.963 203.323 731.262 203.6C731.56 203.877 731.816 204.315 732.03 204.912L737.854 221.936H736.734L742.59 204.848C742.782 204.293 743.038 203.877 743.358 203.6C743.678 203.323 744.115 203.184 744.67 203.184C745.352 203.184 745.854 203.419 746.174 203.888C746.494 204.357 746.536 204.933 746.302 205.616L739.55 224.56C739.336 225.136 739.059 225.563 738.718 225.84C738.376 226.117 737.918 226.256 737.342 226.256C736.766 226.256 736.307 226.117 735.966 225.84C735.624 225.563 735.347 225.125 735.134 224.528L729.566 208.656H730.302L724.67 224.56C724.456 225.136 724.179 225.563 723.838 225.84C723.518 226.117 723.07 226.256 722.494 226.256ZM752.231 226.256C751.569 226.256 751.057 226.075 750.695 225.712C750.353 225.328 750.183 224.805 750.183 224.144V205.296C750.183 204.613 750.353 204.091 750.695 203.728C751.057 203.365 751.569 203.184 752.231 203.184C752.892 203.184 753.393 203.365 753.735 203.728C754.097 204.091 754.279 204.613 754.279 205.296V224.144C754.279 224.805 754.108 225.328 753.767 225.712C753.425 226.075 752.913 226.256 752.231 226.256ZM761.134 226.256C760.515 226.256 760.035 226.085 759.694 225.744C759.374 225.403 759.214 224.912 759.214 224.272V205.232C759.214 204.571 759.374 204.069 759.694 203.728C760.035 203.365 760.473 203.184 761.006 203.184C761.497 203.184 761.859 203.28 762.094 203.472C762.35 203.643 762.649 203.941 762.99 204.368L775.246 220.272H774.414V205.136C774.414 204.517 774.574 204.037 774.894 203.696C775.235 203.355 775.715 203.184 776.334 203.184C776.953 203.184 777.422 203.355 777.742 203.696C778.062 204.037 778.222 204.517 778.222 205.136V224.336C778.222 224.933 778.073 225.403 777.774 225.744C777.475 226.085 777.07 226.256 776.558 226.256C776.067 226.256 775.673 226.16 775.374 225.968C775.097 225.776 774.787 225.467 774.446 225.04L762.222 209.136H763.022V224.272C763.022 224.912 762.862 225.403 762.542 225.744C762.222 226.085 761.753 226.256 761.134 226.256ZM794 226.32C791.504 226.32 789.392 225.851 787.664 224.912C785.957 223.973 784.656 222.64 783.76 220.912C782.864 219.184 782.416 217.136 782.416 214.768C782.416 212.976 782.672 211.365 783.184 209.936C783.717 208.507 784.474 207.291 785.456 206.288C786.458 205.264 787.674 204.485 789.104 203.952C790.533 203.397 792.154 203.12 793.968 203.12C795.162 203.12 796.357 203.269 797.552 203.568C798.768 203.845 799.909 204.325 800.976 205.008C801.338 205.243 801.573 205.531 801.68 205.872C801.808 206.213 801.829 206.565 801.744 206.928C801.658 207.269 801.498 207.568 801.264 207.824C801.029 208.08 800.73 208.24 800.368 208.304C800.026 208.368 799.642 208.283 799.216 208.048C798.405 207.579 797.584 207.237 796.752 207.024C795.92 206.811 794.992 206.704 793.968 206.704C792.389 206.704 791.056 207.024 789.968 207.664C788.88 208.283 788.058 209.189 787.504 210.384C786.97 211.579 786.704 213.04 786.704 214.768C786.704 217.392 787.333 219.387 788.592 220.752C789.85 222.117 791.717 222.8 794.192 222.8C795.045 222.8 795.909 222.715 796.784 222.544C797.658 222.373 798.512 222.139 799.344 221.84L798.544 223.664V216.848H795.024C794.49 216.848 794.074 216.709 793.776 216.432C793.498 216.155 793.36 215.781 793.36 215.312C793.36 214.821 793.498 214.448 793.776 214.192C794.074 213.936 794.49 213.808 795.024 213.808H800.304C800.837 213.808 801.242 213.957 801.52 214.256C801.818 214.533 801.968 214.939 801.968 215.472V223.248C801.968 223.717 801.872 224.112 801.68 224.432C801.509 224.752 801.221 224.987 800.816 225.136C799.877 225.477 798.8 225.765 797.583 226C796.368 226.213 795.173 226.32 794 226.32ZM817.578 226C816.874 226 816.33 225.819 815.946 225.456C815.583 225.072 815.402 224.528 815.402 223.824V205.616C815.402 204.912 815.583 204.379 815.946 204.016C816.33 203.632 816.874 203.44 817.578 203.44H825.258C826.836 203.44 828.18 203.675 829.29 204.144C830.399 204.613 831.242 205.285 831.818 206.16C832.415 207.035 832.714 208.08 832.714 209.296C832.714 210.661 832.319 211.813 831.53 212.752C830.74 213.691 829.663 214.32 828.298 214.64V214.16C829.876 214.395 831.103 214.992 831.978 215.952C832.852 216.912 833.29 218.16 833.29 219.696C833.29 221.701 832.607 223.259 831.242 224.368C829.898 225.456 828.02 226 825.61 226H817.578ZM819.338 222.896H825.098C826.548 222.896 827.615 222.619 828.298 222.064C828.98 221.488 829.322 220.635 829.322 219.504C829.322 218.352 828.98 217.499 828.298 216.944C827.615 216.389 826.548 216.112 825.098 216.112H819.338V222.896ZM819.338 213.008H824.554C825.962 213.008 827.007 212.741 827.69 212.208C828.394 211.653 828.746 210.843 828.746 209.776C828.746 208.709 828.394 207.909 827.69 207.376C827.007 206.821 825.962 206.544 824.554 206.544H819.338V213.008ZM842.713 226.32C841.411 226.32 840.334 226.085 839.481 225.616C838.627 225.125 837.987 224.4 837.561 223.44C837.155 222.48 836.953 221.285 836.953 219.856V212.112C836.953 211.429 837.123 210.928 837.465 210.608C837.806 210.267 838.297 210.096 838.937 210.096C839.577 210.096 840.067 210.267 840.409 210.608C840.771 210.928 840.953 211.429 840.953 212.112V219.92C840.953 221.029 841.177 221.851 841.625 222.384C842.073 222.917 842.787 223.184 843.769 223.184C844.835 223.184 845.71 222.821 846.393 222.096C847.075 221.349 847.417 220.368 847.417 219.152V212.112C847.417 211.429 847.587 210.928 847.929 210.608C848.27 210.267 848.761 210.096 849.401 210.096C850.041 210.096 850.531 210.267 850.873 210.608C851.235 210.928 851.417 211.429 851.417 212.112V224.208C851.417 225.573 850.766 226.256 849.465 226.256C848.846 226.256 848.366 226.085 848.025 225.744C847.683 225.381 847.513 224.869 847.513 224.208V221.776L847.961 222.736C847.513 223.888 846.83 224.773 845.913 225.392C845.017 226.011 843.95 226.32 842.713 226.32ZM861.308 226.32C860.391 226.32 859.42 226.224 858.396 226.032C857.372 225.84 856.455 225.509 855.644 225.04C855.303 224.827 855.057 224.581 854.908 224.304C854.78 224.005 854.727 223.717 854.748 223.44C854.791 223.141 854.897 222.885 855.068 222.672C855.26 222.459 855.495 222.32 855.772 222.256C856.071 222.192 856.391 222.245 856.732 222.416C857.585 222.821 858.385 223.109 859.132 223.28C859.879 223.429 860.615 223.504 861.34 223.504C862.364 223.504 863.121 223.333 863.612 222.992C864.124 222.629 864.38 222.16 864.38 221.584C864.38 221.093 864.209 220.72 863.868 220.464C863.548 220.187 863.057 219.984 862.396 219.856L859.196 219.248C857.873 218.992 856.86 218.512 856.156 217.808C855.473 217.083 855.132 216.155 855.132 215.024C855.132 214 855.409 213.115 855.964 212.368C856.54 211.621 857.329 211.045 858.332 210.64C859.335 210.235 860.487 210.032 861.788 210.032C862.727 210.032 863.601 210.139 864.412 210.352C865.244 210.544 866.044 210.853 866.812 211.28C867.132 211.451 867.345 211.675 867.452 211.952C867.58 212.229 867.612 212.517 867.548 212.816C867.484 213.093 867.356 213.349 867.164 213.584C866.972 213.797 866.727 213.936 866.428 214C866.151 214.043 865.831 213.979 865.468 213.808C864.807 213.467 864.167 213.221 863.548 213.072C862.951 212.923 862.375 212.848 861.82 212.848C860.775 212.848 859.996 213.029 859.484 213.392C858.993 213.755 858.748 214.235 858.748 214.832C858.748 215.28 858.897 215.653 859.196 215.952C859.495 216.251 859.953 216.453 860.572 216.56L863.772 217.168C865.159 217.424 866.204 217.893 866.908 218.576C867.633 219.259 867.996 220.176 867.996 221.328C867.996 222.885 867.388 224.112 866.172 225.008C864.956 225.883 863.335 226.32 861.308 226.32ZM873.189 226.224C872.549 226.224 872.058 226.032 871.717 225.648C871.376 225.264 871.205 224.731 871.205 224.048V212.304C871.205 211.6 871.376 211.067 871.717 210.704C872.058 210.32 872.549 210.128 873.189 210.128C873.829 210.128 874.32 210.32 874.661 210.704C875.024 211.067 875.205 211.6 875.205 212.304V224.048C875.205 224.731 875.034 225.264 874.693 225.648C874.352 226.032 873.85 226.224 873.189 226.224ZM873.189 207.152C872.442 207.152 871.856 206.971 871.429 206.608C871.024 206.224 870.821 205.701 870.821 205.04C870.821 204.357 871.024 203.835 871.429 203.472C871.856 203.109 872.442 202.928 873.189 202.928C873.957 202.928 874.544 203.109 874.949 203.472C875.354 203.835 875.557 204.357 875.557 205.04C875.557 205.701 875.354 206.224 874.949 206.608C874.544 206.971 873.957 207.152 873.189 207.152ZM881.345 226.256C880.705 226.256 880.215 226.085 879.873 225.744C879.532 225.381 879.361 224.869 879.361 224.208V212.112C879.361 211.451 879.532 210.949 879.873 210.608C880.215 210.267 880.695 210.096 881.313 210.096C881.932 210.096 882.412 210.267 882.753 210.608C883.095 210.949 883.265 211.451 883.265 212.112V214.288L882.913 213.488C883.383 212.357 884.108 211.504 885.089 210.928C886.092 210.331 887.223 210.032 888.481 210.032C889.74 210.032 890.775 210.267 891.585 210.736C892.396 211.205 893.004 211.92 893.409 212.88C893.815 213.819 894.017 215.013 894.017 216.464V224.208C894.017 224.869 893.847 225.381 893.505 225.744C893.164 226.085 892.673 226.256 892.033 226.256C891.393 226.256 890.892 226.085 890.529 225.744C890.188 225.381 890.017 224.869 890.017 224.208V216.656C890.017 215.44 889.783 214.555 889.313 214C888.865 213.445 888.161 213.168 887.201 213.168C886.028 213.168 885.089 213.541 884.385 214.288C883.703 215.013 883.361 215.984 883.361 217.2V224.208C883.361 225.573 882.689 226.256 881.345 226.256ZM905.792 226.32C904.021 226.32 902.496 225.989 901.216 225.328C899.936 224.667 898.944 223.728 898.24 222.512C897.557 221.296 897.216 219.856 897.216 218.192C897.216 216.571 897.547 215.152 898.208 213.936C898.891 212.72 899.819 211.771 900.992 211.088C902.187 210.384 903.541 210.032 905.056 210.032C906.165 210.032 907.157 210.213 908.032 210.576C908.928 210.939 909.685 211.461 910.304 212.144C910.944 212.827 911.424 213.659 911.744 214.64C912.085 215.6 912.256 216.688 912.256 217.904C912.256 218.288 912.117 218.587 911.84 218.8C911.584 218.992 911.211 219.088 910.72 219.088H900.448V216.784H909.44L908.928 217.264C908.928 216.283 908.779 215.461 908.48 214.8C908.203 214.139 907.787 213.637 907.232 213.296C906.699 212.933 906.027 212.752 905.216 212.752C904.32 212.752 903.552 212.965 902.912 213.392C902.293 213.797 901.813 214.384 901.472 215.152C901.152 215.899 900.992 216.795 900.992 217.84V218.064C900.992 219.813 901.397 221.125 902.208 222C903.04 222.853 904.256 223.28 905.856 223.28C906.411 223.28 907.029 223.216 907.712 223.088C908.416 222.939 909.077 222.693 909.696 222.352C910.144 222.096 910.539 221.989 910.88 222.032C911.221 222.053 911.488 222.171 911.68 222.384C911.893 222.597 912.021 222.864 912.064 223.184C912.107 223.483 912.043 223.792 911.872 224.112C911.723 224.432 911.456 224.709 911.072 224.944C910.325 225.413 909.461 225.765 908.48 226C907.52 226.213 906.624 226.32 905.792 226.32ZM921.152 226.32C920.234 226.32 919.264 226.224 918.24 226.032C917.216 225.84 916.298 225.509 915.488 225.04C915.146 224.827 914.901 224.581 914.752 224.304C914.624 224.005 914.57 223.717 914.592 223.44C914.634 223.141 914.741 222.885 914.912 222.672C915.104 222.459 915.338 222.32 915.616 222.256C915.914 222.192 916.234 222.245 916.576 222.416C917.429 222.821 918.229 223.109 918.976 223.28C919.722 223.429 920.458 223.504 921.184 223.504C922.208 223.504 922.965 223.333 923.456 222.992C923.968 222.629 924.224 222.16 924.224 221.584C924.224 221.093 924.053 220.72 923.712 220.464C923.392 220.187 922.901 219.984 922.24 219.856L919.04 219.248C917.717 218.992 916.704 218.512 916 217.808C915.317 217.083 914.976 216.155 914.976 215.024C914.976 214 915.253 213.115 915.808 212.368C916.384 211.621 917.173 211.045 918.176 210.64C919.178 210.235 920.33 210.032 921.632 210.032C922.57 210.032 923.445 210.139 924.256 210.352C925.088 210.544 925.888 210.853 926.656 211.28C926.976 211.451 927.189 211.675 927.296 211.952C927.424 212.229 927.456 212.517 927.392 212.816C927.328 213.093 927.2 213.349 927.008 213.584C926.816 213.797 926.57 213.936 926.272 214C925.994 214.043 925.674 213.979 925.312 213.808C924.65 213.467 924.01 213.221 923.392 213.072C922.794 212.923 922.218 212.848 921.664 212.848C920.618 212.848 919.84 213.029 919.328 213.392C918.837 213.755 918.592 214.235 918.592 214.832C918.592 215.28 918.741 215.653 919.04 215.952C919.338 216.251 919.797 216.453 920.416 216.56L923.616 217.168C925.002 217.424 926.048 217.893 926.752 218.576C927.477 219.259 927.84 220.176 927.84 221.328C927.84 222.885 927.232 224.112 926.016 225.008C924.8 225.883 923.178 226.32 921.152 226.32ZM936.777 226.32C935.859 226.32 934.889 226.224 933.865 226.032C932.841 225.84 931.923 225.509 931.113 225.04C930.771 224.827 930.526 224.581 930.377 224.304C930.249 224.005 930.195 223.717 930.217 223.44C930.259 223.141 930.366 222.885 930.537 222.672C930.729 222.459 930.963 222.32 931.241 222.256C931.539 222.192 931.859 222.245 932.201 222.416C933.054 222.821 933.854 223.109 934.601 223.28C935.347 223.429 936.083 223.504 936.809 223.504C937.833 223.504 938.59 223.333 939.081 222.992C939.593 222.629 939.849 222.16 939.849 221.584C939.849 221.093 939.678 220.72 939.337 220.464C939.017 220.187 938.526 219.984 937.865 219.856L934.665 219.248C933.342 218.992 932.329 218.512 931.625 217.808C930.942 217.083 930.601 216.155 930.601 215.024C930.601 214 930.878 213.115 931.433 212.368C932.009 211.621 932.798 211.045 933.801 210.64C934.803 210.235 935.955 210.032 937.257 210.032C938.195 210.032 939.07 210.139 939.881 210.352C940.713 210.544 941.513 210.853 942.281 211.28C942.601 211.451 942.814 211.675 942.921 211.952C943.049 212.229 943.081 212.517 943.017 212.816C942.953 213.093 942.825 213.349 942.633 213.584C942.441 213.797 942.195 213.936 941.897 214C941.619 214.043 941.299 213.979 940.937 213.808C940.275 213.467 939.635 213.221 939.017 213.072C938.419 212.923 937.843 212.848 937.289 212.848C936.243 212.848 935.465 213.029 934.953 213.392C934.462 213.755 934.217 214.235 934.217 214.832C934.217 215.28 934.366 215.653 934.665 215.952C934.963 216.251 935.422 216.453 936.041 216.56L939.241 217.168C940.627 217.424 941.673 217.893 942.377 218.576C943.102 219.259 943.465 220.176 943.465 221.328C943.465 222.885 942.857 224.112 941.641 225.008C940.425 225.883 938.803 226.32 936.777 226.32ZM954.386 226.32C952.615 226.32 951.09 225.989 949.81 225.328C948.53 224.667 947.538 223.728 946.834 222.512C946.151 221.296 945.81 219.856 945.81 218.192C945.81 216.571 946.14 215.152 946.802 213.936C947.484 212.72 948.412 211.771 949.586 211.088C950.78 210.384 952.135 210.032 953.65 210.032C954.759 210.032 955.751 210.213 956.626 210.576C957.522 210.939 958.279 211.461 958.898 212.144C959.538 212.827 960.018 213.659 960.338 214.64C960.679 215.6 960.85 216.688 960.85 217.904C960.85 218.288 960.711 218.587 960.434 218.8C960.178 218.992 959.804 219.088 959.314 219.088H949.042V216.784H958.034L957.522 217.264C957.522 216.283 957.372 215.461 957.074 214.8C956.796 214.139 956.38 213.637 955.826 213.296C955.292 212.933 954.62 212.752 953.81 212.752C952.914 212.752 952.146 212.965 951.506 213.392C950.887 213.797 950.407 214.384 950.066 215.152C949.746 215.899 949.586 216.795 949.586 217.84V218.064C949.586 219.813 949.991 221.125 950.802 222C951.634 222.853 952.85 223.28 954.45 223.28C955.004 223.28 955.623 223.216 956.306 223.088C957.01 222.939 957.671 222.693 958.29 222.352C958.738 222.096 959.132 221.989 959.474 222.032C959.815 222.053 960.082 222.171 960.274 222.384C960.487 222.597 960.615 222.864 960.658 223.184C960.7 223.483 960.636 223.792 960.466 224.112C960.316 224.432 960.05 224.709 959.666 224.944C958.919 225.413 958.055 225.765 957.074 226C956.114 226.213 955.218 226.32 954.386 226.32ZM969.746 226.32C968.828 226.32 967.858 226.224 966.834 226.032C965.81 225.84 964.892 225.509 964.082 225.04C963.74 224.827 963.495 224.581 963.346 224.304C963.218 224.005 963.164 223.717 963.186 223.44C963.228 223.141 963.335 222.885 963.506 222.672C963.698 222.459 963.932 222.32 964.21 222.256C964.508 222.192 964.828 222.245 965.17 222.416C966.023 222.821 966.823 223.109 967.57 223.28C968.316 223.429 969.052 223.504 969.778 223.504C970.802 223.504 971.559 223.333 972.05 222.992C972.562 222.629 972.818 222.16 972.818 221.584C972.818 221.093 972.647 220.72 972.306 220.464C971.986 220.187 971.495 219.984 970.834 219.856L967.634 219.248C966.311 218.992 965.298 218.512 964.594 217.808C963.911 217.083 963.57 216.155 963.57 215.024C963.57 214 963.847 213.115 964.402 212.368C964.978 211.621 965.767 211.045 966.77 210.64C967.772 210.235 968.924 210.032 970.226 210.032C971.164 210.032 972.039 210.139 972.85 210.352C973.682 210.544 974.482 210.853 975.25 211.28C975.57 211.451 975.783 211.675 975.89 211.952C976.018 212.229 976.05 212.517 975.986 212.816C975.922 213.093 975.794 213.349 975.602 213.584C975.41 213.797 975.164 213.936 974.866 214C974.588 214.043 974.268 213.979 973.906 213.808C973.244 213.467 972.604 213.221 971.986 213.072C971.388 212.923 970.812 212.848 970.258 212.848C969.212 212.848 968.434 213.029 967.922 213.392C967.431 213.755 967.186 214.235 967.186 214.832C967.186 215.28 967.335 215.653 967.634 215.952C967.932 216.251 968.391 216.453 969.01 216.56L972.21 217.168C973.596 217.424 974.642 217.893 975.346 218.576C976.071 219.259 976.434 220.176 976.434 221.328C976.434 222.885 975.826 224.112 974.61 225.008C973.394 225.883 971.772 226.32 969.746 226.32Z" fill="#030D30"/>
</svg>
