<svg width="400" height="465" viewBox="0 0 400 465" fill="none" xmlns="http://www.w3.org/2000/svg">
<g clip-path="url(#clip0_218_3392)">
<path d="M94.8445 333.234L94.7373 332.476L98.9475 331.871L99.0547 332.629L94.8445 333.234ZM91.3462 332.124V327.868H92.1117V332.124H91.3462ZM103.265 332.024L103.158 331.266L107.368 330.662L107.475 331.419L103.265 332.024ZM111.685 330.815L111.578 330.057L115.788 329.452L115.895 330.21L111.685 330.815ZM120.106 329.605L119.999 328.847L124.209 328.243L124.316 329.001L120.106 329.605ZM128.526 328.396L128.419 327.638L132.629 327.033L132.736 327.791L128.526 328.396ZM136.947 327.186L136.839 326.428L141.05 325.824L141.157 326.582L136.947 327.186ZM145.367 325.977L145.26 325.219L149.47 324.614L149.577 325.372L145.367 325.977ZM153.787 324.767L153.68 324.009L157.89 323.405L157.998 324.163L153.787 324.767ZM91.3232 323.596V319.34H92.0887V323.596H91.3232ZM162.215 323.558L162.108 322.8L166.318 322.195L166.426 322.953L162.215 323.558ZM170.636 322.348L170.529 321.591L174.739 320.986L174.846 321.744L170.636 322.348ZM179.056 321.139L178.949 320.381L183.159 319.776L183.266 320.534L179.056 321.139ZM187.477 319.929L187.369 319.172L191.58 318.567L191.687 319.325L187.477 319.929ZM195.897 318.72L195.79 317.962L200 317.357L200.107 318.115L195.897 318.72ZM204.317 317.51L204.21 316.753L208.42 316.148L208.528 316.906L204.317 317.51ZM212.738 316.301L212.631 315.543L216.841 314.938L216.948 315.696L212.738 316.301ZM221.158 315.092L221.051 314.334L225.261 313.729L225.368 314.487L221.158 315.092ZM91.3002 315.069V310.812H92.0657V315.069H91.3002ZM229.586 313.89L229.479 313.132L233.689 312.527L233.797 313.285L229.586 313.89ZM238.007 312.68L237.9 311.922L242.11 311.318L242.217 312.075L238.007 312.68ZM246.427 311.471L246.32 310.713L250.53 310.108L250.637 310.866L246.427 311.471ZM254.848 310.261L254.74 309.503L258.951 308.899L259.058 309.657L254.848 310.261ZM263.268 309.052L263.161 308.294L267.371 307.689L267.478 308.447L263.268 309.052ZM271.688 307.842L271.581 307.084L272.783 306.916V302.997H273.549V307.582L271.688 307.85V307.842ZM91.2773 306.549V302.292H92.0428V306.549H91.2773ZM273.549 298.733H272.783V294.477H273.549V298.733ZM91.2696 298.036V293.78H92.0351V298.036H91.2696ZM273.549 290.221H272.783V285.965H273.549V290.221ZM91.262 289.524V285.268H92.0275V289.524H91.262ZM273.556 281.708H272.791V277.452H273.556V281.708ZM91.2543 281.012V276.756H92.0198V281.012H91.2543ZM273.556 273.196H272.791V268.94H273.556V273.196ZM91.2467 272.5V268.243H92.0121V272.5H91.2467ZM273.556 264.684H272.791V260.428H273.556V264.684ZM91.239 263.987V259.731H92.0045V263.987H91.239ZM273.556 256.172H272.791V251.915H273.556V256.172ZM91.2313 255.475V251.219H91.9968V255.475H91.2313ZM273.564 247.659H272.798V243.403H273.564V247.659ZM91.2237 246.963V242.707H91.9892V246.963H91.2237ZM273.564 239.147H272.798V234.891H273.564V239.147ZM91.216 238.45V234.194H91.9815V238.45H91.216ZM273.564 230.635H272.798V226.379H273.564V230.635ZM91.2084 229.938V225.682H91.9739V229.938H91.2084ZM273.571 222.123H272.806V217.866H273.571V222.123ZM91.2007 221.426V217.17H91.9662V221.426H91.2007ZM273.571 213.61H272.806V209.354H273.571V213.61ZM91.1931 212.914V208.658H91.9586V212.914H91.1931ZM273.571 205.098H272.806V200.842H273.571V205.098ZM91.1854 204.401V200.145H91.9509V204.401H91.1854ZM273.571 196.586H272.806V192.33H273.571V196.586ZM91.1778 195.889V191.633H91.9433V195.889H91.1778ZM273.579 188.073H272.814V183.817H273.579V188.073ZM91.1701 187.377V183.121H91.9356V187.377H91.1701ZM273.579 179.561H272.814V175.305H273.579V179.561ZM91.1625 178.865V174.608H91.9279V178.865H91.1625ZM273.579 171.049H272.814V166.793H273.579V171.049ZM91.1548 170.352V166.096H91.9203V170.352H91.1548ZM273.579 162.537H272.814V158.281H273.579V162.537ZM91.1471 161.84V157.584H91.9126V161.84H91.1471ZM273.587 154.024H272.821V149.768H273.587V154.024ZM91.1395 153.328V149.072H91.905V153.328H91.1395ZM273.587 145.512H272.821V141.256H273.587V145.512ZM91.1318 144.816V140.559H91.8973V144.816H91.1318ZM92.2418 137.275L92.1346 136.518L96.3448 135.921L96.452 136.678L92.2418 137.275ZM273.587 137.008H272.821V132.751H273.587V137.008ZM100.662 136.089L100.555 135.331L104.765 134.734L104.872 135.492L100.662 136.089ZM109.09 134.902L108.983 134.145L113.193 133.548L113.3 134.305L109.09 134.902ZM117.518 133.716L117.411 132.958L121.621 132.361L121.729 133.119L117.518 133.716ZM125.946 132.529L125.839 131.772L130.049 131.174L130.157 131.932L125.946 132.529ZM134.374 131.343L134.267 130.585L138.477 129.988L138.585 130.746L134.374 131.343ZM142.803 130.156L142.695 129.399L146.906 128.801L147.013 129.559L142.803 130.156ZM151.231 128.97L151.123 128.212L155.334 127.615L155.441 128.373L151.231 128.97ZM273.602 128.511H272.837V124.254H273.602V128.511ZM159.659 127.776L159.551 127.018L163.762 126.421L163.869 127.179L159.659 127.776ZM168.087 126.589L167.98 125.831L172.19 125.234L172.297 125.992L168.087 126.589ZM176.515 125.403L176.408 124.645L180.618 124.048L180.725 124.806L176.515 125.403ZM184.943 124.216L184.836 123.458L189.046 122.861L189.153 123.619L184.943 124.216ZM193.371 123.03L193.264 122.272L197.474 121.675L197.581 122.433L193.371 123.03ZM201.799 121.843L201.692 121.085L205.902 120.488L206.009 121.246L201.799 121.843ZM210.227 120.657L210.12 119.899L214.33 119.302L214.437 120.06L210.227 120.657ZM273.617 120.014H272.852V115.757H273.617V120.014ZM218.647 119.462L218.54 118.705L222.75 118.108L222.858 118.865L218.647 119.462ZM227.076 118.276L226.968 117.518L231.179 116.921L231.286 117.679L227.076 118.276ZM235.504 117.089L235.396 116.332L239.607 115.735L239.714 116.492L235.504 117.089ZM243.932 115.903L243.824 115.145L248.035 114.548L248.142 115.306L243.932 115.903ZM252.36 114.716L252.253 113.959L256.463 113.361L256.57 114.119L252.36 114.716ZM260.788 113.53L260.681 112.772L264.891 112.175L264.998 112.933L260.788 113.53ZM269.216 112.343L269.109 111.586L273.633 110.95V111.524H273.265L273.304 111.777L269.216 112.351V112.343Z" fill="#9678D3"/>
<path d="M35.4958 464.011L0.45164 444.56V444.338L0 50.936L35.1284 69.859V70.0886L35.4958 464.011ZM1.21713 444.116L34.7227 462.709L34.3553 70.3183L0.765492 52.2144L1.21713 444.108V444.116Z" fill="#9678D3"/>
<path d="M34.7993 70.4633L34.6921 69.7055L397.55 18.785L363.854 0.971973L364.213 0.29834L400 19.2136L34.7993 70.4633Z" fill="#9678D3"/>
<path d="M35.1667 463.735L35.0519 462.977L397.045 410.648L363.402 392.33L363.769 391.656L399.426 411.077L398.293 411.245L35.1667 463.735Z" fill="#9678D3"/>
<path d="M398.614 411.505L363.195 392.215V391.985L363.647 0L399.15 18.7699V18.9995L398.614 411.505ZM363.961 391.763L397.849 410.219L398.385 19.2292L364.412 1.27072L363.961 391.763Z" fill="#9678D3"/>
<path d="M126.505 352.8L91.3461 333.525V333.295L91.2313 136.449L126.429 155.464V155.693L126.498 352.8H126.505ZM92.1116 333.065L125.74 351.506L125.671 155.923L92.0045 137.735L92.1193 333.073L92.1116 333.065Z" fill="#9678D3"/>
<path d="M126.176 352.532L126.069 351.774L306.602 325.862L273.036 307.628L273.403 306.955L308.998 326.291L307.85 326.459L126.176 352.532Z" fill="#9678D3"/>
<path d="M125.985 156.084L125.87 156.03L91.438 137.421L91.7978 136.747L126.122 155.295L306.74 129.759L273.15 111.777L273.51 111.104L309.167 130.187L125.985 156.084Z" fill="#9678D3"/>
<path d="M308.179 326.72L272.837 307.521V307.291L272.951 110.797L308.34 129.736L308.187 326.712L308.179 326.72ZM273.602 307.062L307.421 325.434L307.575 130.203L273.717 112.083L273.602 307.069V307.062Z" fill="#9678D3"/>
<path d="M34.7304 463.796L34.3629 69.7514L34.6921 69.7055L399.158 18.563L398.622 411.199L352.784 417.828L34.7304 463.804V463.796ZM35.1284 70.4174L35.4958 462.916L397.857 410.533L398.392 19.4433L35.1284 70.4174Z" fill="#9678D3"/>
<path d="M0.45164 444.781V440.587H1.20948V443.901L1.27072 443.893L1.37788 444.651L0.443985 444.781H0.45164ZM5.59574 444.039L5.48858 443.281L9.69878 442.676L9.80595 443.434L5.59574 444.039ZM14.0162 442.822L13.909 442.064L18.1192 441.459L18.2264 442.217L14.0162 442.822ZM22.4366 441.605L22.3294 440.847L26.5396 440.242L26.6468 441L22.4366 441.605ZM30.857 440.388L30.7498 439.63L34.96 439.025L35.0672 439.783L30.857 440.388ZM39.2774 439.17L39.1702 438.413L43.3804 437.808L43.4876 438.566L39.2774 439.17ZM47.6978 437.953L47.5906 437.195L51.8008 436.591L51.908 437.349L47.6978 437.953ZM56.1182 436.736L56.011 435.978L60.2212 435.374L60.3284 436.131L56.1182 436.736ZM0.428675 436.323V432.067H1.18651V436.323H0.428675ZM64.5386 435.527L64.4314 434.769L68.6416 434.164L68.7488 434.922L64.5386 435.527ZM72.959 434.31L72.8518 433.552L77.062 432.947L77.1692 433.705L72.959 434.31ZM81.3794 433.092L81.2722 432.335L85.4825 431.73L85.5896 432.488L81.3794 433.092ZM89.7998 431.875L89.6927 431.117L93.9029 430.513L94.01 431.271L89.7998 431.875ZM98.2202 430.658L98.1131 429.9L102.323 429.296L102.43 430.053L98.2202 430.658ZM106.641 429.441L106.533 428.683L110.744 428.078L110.851 428.836L106.641 429.441ZM115.061 428.224L114.954 427.466L119.164 426.861L119.271 427.619L115.061 428.224ZM0.405711 427.803V423.547H1.16355V427.803H0.405711ZM123.481 427.007L123.374 426.249L127.584 425.644L127.692 426.402L123.481 427.007ZM131.902 425.79L131.795 425.032L136.005 424.427L136.112 425.185L131.902 425.79ZM140.322 424.572L140.215 423.815L144.425 423.21L144.532 423.968L140.322 424.572ZM148.743 423.355L148.636 422.598L152.846 421.993L152.953 422.751L148.743 423.355ZM157.163 422.138L157.056 421.38L161.266 420.776L161.373 421.533L157.163 422.138ZM165.583 420.921L165.476 420.163L169.687 419.559L169.794 420.316L165.583 420.921ZM174.004 419.704L173.897 418.946L178.107 418.341L178.214 419.099L174.004 419.704ZM0.382746 419.283V415.027H1.14058V419.283H0.382746ZM182.424 418.487L182.317 417.729L186.527 417.124L186.635 417.882L182.424 418.487ZM190.845 417.27L190.738 416.512L194.948 415.907L195.055 416.665L190.845 417.27ZM199.265 416.053L199.158 415.295L203.368 414.69L203.475 415.448L199.265 416.053ZM207.686 414.835L207.578 414.078L211.789 413.473L211.896 414.231L207.686 414.835ZM216.106 413.618L215.999 412.86L220.209 412.256L220.316 413.014L216.106 413.618ZM224.526 412.401L224.419 411.643L228.629 411.039L228.737 411.796L224.526 412.401ZM232.947 411.184L232.84 410.426L237.05 409.821L237.157 410.579L232.947 411.184ZM0.359781 410.763V406.507H1.11762V410.763H0.359781ZM241.367 409.967L241.26 409.209L245.47 408.604L245.577 409.362L241.367 409.967ZM249.788 408.75L249.68 407.992L253.891 407.387L253.998 408.145L249.788 408.75ZM258.208 407.533L258.101 406.775L262.311 406.17L262.418 406.928L258.208 407.533ZM266.628 406.315L266.521 405.558L270.731 404.953L270.839 405.711L266.628 406.315ZM275.049 405.098L274.942 404.341L279.152 403.736L279.259 404.494L275.049 405.098ZM283.469 403.881L283.362 403.123L287.572 402.519L287.679 403.276L283.469 403.881ZM291.89 402.664L291.782 401.906L295.993 401.302L296.1 402.059L291.89 402.664ZM0.336816 402.235V397.979H1.09465V402.235H0.336816ZM300.31 401.447L300.203 400.689L304.413 400.084L304.52 400.842L300.31 401.447ZM308.73 400.23L308.623 399.472L312.833 398.867L312.941 399.625L308.73 400.23ZM317.151 399.013L317.044 398.255L321.254 397.65L321.361 398.408L317.151 399.013ZM325.571 397.796L325.464 397.038L329.674 396.433L329.781 397.191L325.571 397.796ZM333.992 396.578L333.885 395.821L338.095 395.216L338.202 395.974L333.992 396.578ZM342.412 395.361L342.305 394.603L346.515 393.999L346.622 394.757L342.412 395.361ZM350.832 394.144L350.725 393.386L354.936 392.782L355.043 393.539L350.832 394.144ZM0.313852 393.716V389.459H1.07169V393.716H0.313852ZM359.261 392.927L359.153 392.169L363.364 391.564L363.471 392.322L359.261 392.927ZM363.892 387.76H363.126V383.504H363.892V387.76ZM0.382746 385.272V381.016H1.14058V385.272H0.382746ZM363.976 379.317H363.21V375.06H363.976V379.317ZM0.375091 376.76V372.504H1.13293V376.76H0.375091ZM363.991 370.804H363.226V366.548H363.991V370.804ZM0.367436 368.248V363.991H1.12527V368.248H0.367436ZM363.999 362.292H363.233V358.036H363.999V362.292ZM0.352126 359.743V355.487H1.10996V359.743H0.352126ZM364.007 353.787H363.241V349.531H364.007V353.787ZM0.344471 351.231V346.975H1.10231V351.231H0.344471ZM364.022 345.275H363.256V341.019H364.022V345.275ZM0.336816 342.718V338.462H1.09465V342.718H0.336816ZM364.03 336.763H363.264V332.507H364.03V336.763ZM0.321507 334.214V329.958H1.07934V334.214H0.321507ZM364.037 328.258H363.272V324.002H364.037V328.258ZM0.313852 325.702V321.445H1.07169V325.702H0.313852ZM364.045 319.746H363.279V315.49H364.045V319.746ZM0.306197 317.189V312.933H1.06403V317.189H0.306197ZM364.06 311.234H363.295V306.978H364.06V311.234ZM0.298542 308.685V304.429H1.05638V308.685H0.298542ZM364.068 302.729H363.302V298.473H364.068V302.729ZM0.283232 300.172V295.916H1.04107V300.172H0.283232ZM364.075 294.217H363.31V289.961H364.075V294.217ZM0.275577 291.66V287.404H1.03341V291.66H0.275577ZM364.083 285.705H363.318V281.448H364.083V285.705ZM0.267922 283.155V278.899H1.02576V283.155H0.267922ZM364.098 277.2H363.333V272.944H364.098V277.2ZM0.260267 274.643V270.387H1.0181V274.643H0.260267ZM364.114 268.688H363.348V264.432H364.114V268.688ZM0.244957 266.131V261.875H1.00279V266.131H0.244957ZM364.114 260.175H363.348V255.919H364.114V260.175ZM0.237302 257.626V253.37H0.995139V257.626H0.237302ZM364.129 251.671H363.364V247.415H364.129V251.671ZM0.229648 249.114V244.858H0.987484V249.114H0.229648ZM364.137 243.159H363.371V238.902H364.137V243.159ZM0.214338 240.602V236.346H0.972174V240.602H0.214338ZM364.144 234.646H363.379V230.39H364.144V234.646ZM0.206683 232.097V227.841H0.96452V232.097H0.206683ZM364.152 226.142H363.387V221.886H364.152V226.142ZM0.199028 223.585V219.329H0.956865V223.585H0.199028ZM364.167 217.629H363.402V213.373H364.167V217.629ZM0.191373 215.073V210.817H0.94921V215.073H0.191373ZM364.175 209.117H363.41V204.861H364.175V209.117ZM0.176063 206.568V202.312H0.9339V206.568H0.176063ZM364.183 200.613H363.417V196.356H364.183V200.613ZM0.168408 198.056V193.8H0.926245V198.056H0.168408ZM364.198 192.1H363.432V187.844H364.198V192.1ZM0.160753 189.544V185.287H0.91859V189.544H0.160753ZM364.206 183.588H363.44V179.332H364.206V183.588ZM0.153098 181.039V176.783H0.910935V181.039H0.153098ZM364.221 175.083H363.455V170.827H364.221V175.083ZM0.137789 172.527V168.271H0.895625V172.527H0.137789ZM364.221 166.571H363.455V162.315H364.221V166.571ZM0.130134 164.014V159.758H0.88797V164.014H0.130134ZM364.236 158.059H363.471V153.803H364.236V158.059ZM0.122479 155.51V151.254H0.880315V155.51H0.122479ZM364.244 149.554H363.478V145.298H364.244V149.554ZM0.107169 146.997V142.741H0.865006V146.997H0.107169ZM364.252 141.042H363.486V136.786H364.252V141.042ZM0.0995139 138.485V134.229H0.857351V138.485H0.0995139ZM364.259 132.53H363.494V128.274H364.259V132.53ZM0.091859 129.981V125.724H0.849696V129.981H0.091859ZM364.275 124.025H363.509V119.769H364.275V124.025ZM0.0842041 121.468V117.212H0.842041V121.468H0.0842041ZM364.29 115.513H363.524V111.257H364.29V115.513ZM0.0688943 112.956V108.7H0.826731V112.956H0.0688943ZM364.29 107.001H363.524V102.744H364.29V107.001ZM0.0612393 104.451V100.195H0.819076V104.451H0.0612393ZM364.305 98.4959H363.54V94.2398H364.305V98.4959ZM0.0535844 95.9392V91.6831H0.811421V95.9392H0.0535844ZM364.313 89.9837H363.547V85.7276H364.313V89.9837ZM0.0382746 87.4269V83.1708H0.796111V87.4269H0.0382746ZM364.32 81.4714H363.555V77.2153H364.32V81.4714ZM0.0306197 78.9223V74.6662H0.788456V78.9223H0.0306197ZM364.328 72.9668H363.563V68.7107H364.328V72.9668ZM0.0229647 70.4101V66.1539H0.780801V70.4101H0.0229647ZM364.343 64.4545H363.578V60.1984H364.343V64.4545ZM0.0153098 61.8978V57.6417H0.773147V61.8978H0.0153098ZM364.351 55.9423H363.586V51.6861H364.351V55.9423ZM0 53.3932V51.2422L2.74046 50.8594L2.84763 51.6172L0.765492 51.9081V53.3932H0ZM7.06549 51.0278L6.95832 50.27L11.1685 49.6806L11.2757 50.4384L7.06549 51.0278ZM15.4936 49.849L15.3864 49.0911L19.5966 48.5017L19.7038 49.2595L15.4936 49.849ZM23.9216 48.6701L23.8144 47.9123L28.0247 47.3228L28.1318 48.0807L23.9216 48.6701ZM32.3497 47.4912L32.2425 46.7334L36.4527 46.144L36.5599 46.9018L32.3497 47.4912ZM364.366 47.4453H363.601V43.1892H364.366V47.4453ZM40.7777 46.3124L40.6706 45.5546L44.8808 44.9651L44.9879 45.723L40.7777 46.3124ZM49.2058 45.1335L49.0986 44.3757L53.3088 43.7863L53.416 44.5441L49.2058 45.1335ZM57.6339 43.9547L57.5267 43.1968L61.7369 42.6074L61.8441 43.3652L57.6339 43.9547ZM66.0619 42.7758L65.9548 42.018L70.165 41.4286L70.2721 42.1864L66.0619 42.7758ZM74.49 41.597L74.3828 40.8391L78.593 40.2497L78.7002 41.0075L74.49 41.597ZM82.9181 40.4181L82.8109 39.6603L87.0211 39.0708L87.1283 39.8287L82.9181 40.4181ZM91.3461 39.2392L91.239 38.4814L95.4492 37.892L95.5563 38.6498L91.3461 39.2392ZM364.382 38.9484H363.616V34.6922H364.382V38.9484ZM99.7742 38.0604L99.667 37.3026L103.877 36.7131L103.984 37.471L99.7742 38.0604ZM108.202 36.8815L108.095 36.1237L112.305 35.5343L112.412 36.2921L108.202 36.8815ZM116.63 35.7027L116.523 34.9448L120.733 34.3554L120.841 35.1132L116.63 35.7027ZM125.058 34.5238L124.951 33.766L129.161 33.1766L129.269 33.9344L125.058 34.5238ZM133.486 33.345L133.379 32.5871L137.589 31.9977L137.697 32.7555L133.486 33.345ZM141.915 32.1661L141.807 31.4083L146.018 30.8188L146.125 31.5767L141.915 32.1661ZM150.343 30.9872L150.235 30.2294L154.446 29.64L154.553 30.3978L150.343 30.9872ZM364.389 30.4514H363.624V26.1953H364.389V30.4514ZM158.771 29.8084L158.663 29.0506L162.874 28.4611L162.981 29.219L158.771 29.8084ZM167.199 28.6295L167.092 27.8717L171.302 27.2823L171.409 28.0401L167.199 28.6295ZM175.627 27.4507L175.52 26.6928L179.73 26.1034L179.837 26.8612L175.627 27.4507ZM184.055 26.2718L183.948 25.514L188.158 24.9246L188.265 25.6824L184.055 26.2718ZM192.483 25.093L192.376 24.3351L196.586 23.7457L196.693 24.5035L192.483 25.093ZM200.911 23.9141L200.804 23.1563L205.014 22.5668L205.121 23.3247L200.911 23.9141ZM209.339 22.7352L209.232 21.9774L213.442 21.388L213.549 22.1458L209.339 22.7352ZM364.405 21.9544H363.639V17.6983H364.405V21.9544ZM217.767 21.5564L217.66 20.7986L221.87 20.2091L221.977 20.967L217.767 21.5564ZM226.195 20.3775L226.088 19.6197L230.298 19.0303L230.405 19.7881L226.195 20.3775ZM234.623 19.1987L234.516 18.4408L238.726 17.8514L238.833 18.6092L234.623 19.1987ZM243.051 18.0198L242.944 17.262L247.154 16.6726L247.261 17.4304L243.051 18.0198ZM251.479 16.841L251.372 16.0831L255.582 15.4937L255.69 16.2515L251.479 16.841ZM259.907 15.6621L259.8 14.9043L264.01 14.3148L264.118 15.0727L259.907 15.6621ZM268.335 14.4832L268.228 13.7254L272.438 13.136L272.546 13.8938L268.335 14.4832ZM364.42 13.4575H363.654V9.20135H364.42V13.4575ZM276.763 13.3044L276.656 12.5466L280.867 11.9571L280.974 12.715L276.763 13.3044ZM285.192 12.1255L285.084 11.3677L289.295 10.7783L289.402 11.5361L285.192 12.1255ZM293.62 10.9467L293.512 10.1888L297.723 9.59941L297.83 10.3572L293.62 10.9467ZM302.048 9.76782L301.941 9.00998L306.151 8.42055L306.258 9.17839L302.048 9.76782ZM310.476 8.58896L310.369 7.83112L314.579 7.2417L314.686 7.99953L310.476 8.58896ZM318.904 7.4101L318.797 6.65227L323.007 6.06284L323.114 6.82067L318.904 7.4101ZM327.332 6.23125L327.225 5.47341L331.435 4.88398L331.542 5.64182L327.332 6.23125ZM335.76 5.05239L335.653 4.29455L339.863 3.70512L339.97 4.46296L335.76 5.05239ZM364.435 4.96053H363.67V1.14838L361.036 1.51582L360.929 0.757981L364.435 0.268066V4.96053ZM344.18 3.87353L344.073 3.1157L348.283 2.52627L348.391 3.2841L344.18 3.87353ZM352.608 2.69467L352.501 1.93684L356.711 1.34741L356.819 2.10525L352.608 2.69467Z" fill="#9678D3"/>
<path d="M125.74 352.593L125.671 155.356L126 155.311L308.34 129.529L308.187 326.406L125.747 352.585L125.74 352.593ZM126.436 156.022L126.505 351.705L307.414 325.74L307.567 130.409L126.429 156.022H126.436Z" fill="#9678D3"/>
</g>
<defs>
<clipPath id="clip0_218_3392">
<rect width="400" height="464.01" fill="white"/>
</clipPath>
</defs>
</svg>
