<svg width="18" height="18" viewBox="0 0 18 18" fill="none" xmlns="http://www.w3.org/2000/svg">
  <g clip-path="url(#clip0_1219_1462)">
    <path d="M16.7885 0.692261H8.30777C8.02111 0.692261 7.78854 0.924833 7.78854 1.21149V4.02399H1.21161C0.924955 4.02399 0.692383 4.25656 0.692383 4.54322V16.7884C0.692383 17.0751 0.924955 17.3076 1.21161 17.3076H9.689C9.97566 17.3076 10.2082 17.0751 10.2082 16.7884V13.9806H16.7885C17.0752 13.9806 17.3078 13.7481 17.3078 13.4614V1.21149C17.3078 0.924833 17.0752 0.692261 16.7885 0.692261ZM9.16977 16.2692H1.73084V11.012H5.74356L4.07685 12.6792C3.94163 12.8144 3.94163 13.0335 4.07685 13.1687C4.14446 13.2363 4.23302 13.2701 4.32159 13.2701C4.41016 13.2701 4.49872 13.2363 4.56633 13.1687L6.82335 10.911C6.85546 10.879 6.88094 10.8406 6.89856 10.798C6.93355 10.7134 6.93355 10.6182 6.89856 10.5336C6.88094 10.4911 6.85546 10.4527 6.82335 10.4207L4.56633 8.16296C4.43111 8.02775 4.21206 8.02775 4.07685 8.16296C3.94163 8.29818 3.94163 8.51723 4.07685 8.65245L5.74356 10.3197H1.73084V5.06245H8.30443C8.30561 5.06245 8.30658 5.06313 8.30777 5.06313C8.30895 5.06313 8.30992 5.06245 8.31111 5.06245H9.16977V16.2692ZM10.2082 12.9422V4.54322C10.2082 4.25656 9.97566 4.02399 9.689 4.02399H8.827V1.73072H16.2693V6.99064H12.2546L13.9219 5.32274C14.0572 5.18753 14.0572 4.96848 13.9219 4.83326C13.7867 4.69804 13.5677 4.69804 13.4325 4.83326L11.1748 7.09163C11.1427 7.12366 11.1172 7.16202 11.0996 7.20462C11.0646 7.28921 11.0646 7.38437 11.0996 7.46897C11.1172 7.51156 11.1427 7.54993 11.1748 7.58196L13.4325 9.84032C13.5001 9.90793 13.5886 9.94173 13.6772 9.94173C13.7658 9.94173 13.8543 9.90793 13.9219 9.84032C14.0572 9.70511 14.0572 9.48606 13.9219 9.35084L12.2546 7.68295H16.2693V12.9422H10.2082Z" fill="#1D1D1B"/>
  </g>
  <defs>
    <clipPath id="clip0_1219_1462">
      <rect width="18" height="18" fill="white"/>
    </clipPath>
  </defs>
</svg>
