<svg width="20" height="20" viewBox="0 0 20 20" fill="none" xmlns="http://www.w3.org/2000/svg">
<path d="M14.5 1H5.5C3.01472 1 1 3.01472 1 5.5V14.5C1 16.9853 3.01472 19 5.5 19H14.5C16.9853 19 19 16.9853 19 14.5V5.5C19 3.01472 16.9853 1 14.5 1Z" stroke="white" stroke-width="2" stroke-linecap="round" stroke-linejoin="round"/>
<path d="M13.6 9.43303C13.7111 10.182 13.5832 10.947 13.2344 11.6191C12.8857 12.2913 12.3339 12.8363 11.6575 13.1767C10.9811 13.5172 10.2146 13.6357 9.46704 13.5154C8.71944 13.3951 8.02881 13.0421 7.49338 12.5067C6.95795 11.9712 6.60499 11.2806 6.48469 10.533C6.36439 9.78542 6.48289 9.01893 6.82332 8.34256C7.16376 7.6662 7.7088 7.11439 8.38092 6.76564C9.05303 6.4169 9.81801 6.28896 10.567 6.40003C11.3311 6.51332 12.0384 6.86934 12.5846 7.4155C13.1307 7.96166 13.4867 8.669 13.6 9.43303Z" stroke="white" stroke-width="2" stroke-linecap="round" stroke-linejoin="round"/>
<path d="M14.9502 5.04999H14.9592" stroke="white" stroke-width="2" stroke-linecap="round" stroke-linejoin="round"/>
</svg>
