<svg width="18" height="18" viewBox="0 0 18 18" fill="none" xmlns="http://www.w3.org/2000/svg">
<path d="M16.6575 2.42291e-05H1.3425C0.993543 -0.00207989 0.657636 0.132935 0.406712 0.376156C0.155788 0.619377 0.00979604 0.951467 0 1.30131V16.6986C0.00787611 17.0491 0.153267 17.3823 0.404613 17.626C0.655959 17.8696 0.992973 18.004 1.3425 17.9999H16.6575C17.007 18.004 17.344 17.8696 17.5954 17.626C17.8467 17.3823 17.9921 17.0491 18 16.6986V1.30131C17.9902 0.951467 17.8442 0.619377 17.5933 0.376156C17.3424 0.132935 17.0065 -0.00207989 16.6575 2.42291e-05ZM5.3325 15.3522H2.6925V6.76973H5.3325V15.3522ZM4.0425 5.57375C3.63717 5.57386 3.24786 5.41499 2.95777 5.13108C2.66767 4.84716 2.49979 4.46072 2.49 4.05432C2.48266 3.84787 2.5178 3.64211 2.59322 3.44987C2.66864 3.25764 2.78273 3.08304 2.92839 2.93696C3.07404 2.79088 3.24813 2.67646 3.43981 2.60081C3.63149 2.52517 3.83665 2.48993 4.0425 2.49729C4.43463 2.52468 4.80181 2.70022 5.06993 2.9885C5.33805 3.27678 5.48716 3.65634 5.48716 4.05056C5.48716 4.44479 5.33805 4.82434 5.06993 5.11262C4.80181 5.4009 4.43463 5.57645 4.0425 5.60383V5.57375ZM15.36 15.2996H12.75V11.1023C12.75 10.1019 12.75 8.80064 11.355 8.80064C9.96 8.80064 9.75 9.89883 9.75 11.0046V15.2544H7.08V6.76973H9.57V7.89801H9.6225C9.87772 7.45349 10.2499 7.08788 10.6983 6.84113C11.1467 6.59439 11.6541 6.47602 12.165 6.49894C14.8575 6.49894 15.36 8.30419 15.36 10.5984V15.2996Z" fill="white"/>
</svg>
